<?xml version="1.0" encoding="UTF-8" standalone="no"?>
<!-- Created with Inkscape (http://www.inkscape.org/) -->

<svg
   xmlns:dc="http://purl.org/dc/elements/1.1/"
   xmlns:cc="http://creativecommons.org/ns#"
   xmlns:rdf="http://www.w3.org/1999/02/22-rdf-syntax-ns#"
   xmlns:svg="http://www.w3.org/2000/svg"
   xmlns="http://www.w3.org/2000/svg"
   xmlns:xlink="http://www.w3.org/1999/xlink"
   xmlns:sodipodi="http://sodipodi.sourceforge.net/DTD/sodipodi-0.dtd"
   xmlns:inkscape="http://www.inkscape.org/namespaces/inkscape"
   width="520"
   height="520"
   id="svg2826"
   sodipodi:version="0.32"
   inkscape:version="0.47pre4 r22446"
   version="1.0"
   sodipodi:docname="darktable.svg"
   inkscape:output_extension="org.inkscape.output.svg.inkscape"
   inkscape:export-filename="/home/jo/svn/darktable/pixmaps/darktable-16.png"
   inkscape:export-xdpi="2.77"
   inkscape:export-ydpi="2.77"
   style="enable-background:new">
  <defs
     id="defs2828">
    <linearGradient
       id="linearGradient5260">
      <stop
         style="stop-color:#050505;stop-opacity:1;"
         offset="0"
         id="stop5262" />
      <stop
         id="stop5268"
         offset="0.81599998"
         style="stop-color:#0b0b0b;stop-opacity:0.58039218;" />
      <stop
         style="stop-color:#ffffff;stop-opacity:0.16585366;"
         offset="1"
         id="stop5264" />
    </linearGradient>
    <linearGradient
       id="linearGradient4406">
      <stop
         style="stop-color:#000000;stop-opacity:0;"
         offset="0"
         id="stop4408" />
      <stop
         style="stop-color:#000000;stop-opacity:0.77073169;"
         offset="1"
         id="stop4410" />
    </linearGradient>
    <linearGradient
       id="linearGradient4510">
      <stop
         style="stop-color:#ffffff;stop-opacity:0.34146342;"
         offset="0"
         id="stop4512" />
      <stop
         style="stop-color:#ffffff;stop-opacity:1;"
         offset="1"
         id="stop4514" />
    </linearGradient>
    <linearGradient
       id="linearGradient4461">
      <stop
         style="stop-color:#ffffff;stop-opacity:1;"
         offset="0"
         id="stop4463" />
      <stop
         style="stop-color:#ffffff;stop-opacity:0;"
         offset="1"
         id="stop4465" />
    </linearGradient>
    <linearGradient
       id="linearGradient3949">
      <stop
         id="stop3951"
         offset="0"
         style="stop-color:#d6d6d6;stop-opacity:1;" />
      <stop
         id="stop3953"
         offset="1"
         style="stop-color:#131313;stop-opacity:1;" />
    </linearGradient>
    <linearGradient
       id="linearGradient3849">
      <stop
         style="stop-color:#424242;stop-opacity:1;"
         offset="0"
         id="stop3851" />
      <stop
         style="stop-color:#ffffff;stop-opacity:1;"
         offset="1"
         id="stop3853" />
    </linearGradient>
    <inkscape:perspective
       sodipodi:type="inkscape:persp3d"
       inkscape:vp_x="0 : 526.18109 : 1"
       inkscape:vp_y="0 : 1000 : 0"
       inkscape:vp_z="744.09448 : 526.18109 : 1"
       inkscape:persp3d-origin="372.04724 : 350.78739 : 1"
       id="perspective2834" />
    <linearGradient
       inkscape:collect="always"
       xlink:href="#linearGradient3849"
       id="linearGradient3855"
       x1="-1.5"
       y1="476"
       x2="513.5"
       y2="88"
       gradientUnits="userSpaceOnUse"
       gradientTransform="translate(4,4)" />
    <filter
       inkscape:collect="always"
       id="filter3937">
      <feGaussianBlur
         inkscape:collect="always"
         stdDeviation="1.2875"
         id="feGaussianBlur3939" />
    </filter>
    <linearGradient
       inkscape:collect="always"
       xlink:href="#linearGradient3949"
       id="linearGradient3947"
       x1="81"
       y1="376.5"
       x2="436.75"
       y2="122"
       gradientUnits="userSpaceOnUse"
       gradientTransform="translate(-2,-3.10932)" />
    <inkscape:perspective
       id="perspective267"
       inkscape:persp3d-origin="237.95 : 179.96667 : 1"
       inkscape:vp_z="475.89999 : 269.95001 : 1"
       inkscape:vp_y="0 : 1000 : 0"
       inkscape:vp_x="0 : 269.95001 : 1"
       sodipodi:type="inkscape:persp3d" />
    <filter
       inkscape:collect="always"
       id="filter4489">
      <feGaussianBlur
         inkscape:collect="always"
         stdDeviation="0.3032"
         id="feGaussianBlur4491" />
    </filter>
    <inkscape:perspective
       id="perspective5170"
       inkscape:persp3d-origin="4.7925 : 2.8823334 : 1"
       inkscape:vp_z="9.585 : 4.3235002 : 1"
       inkscape:vp_y="0 : 1000 : 0"
       inkscape:vp_x="0 : 4.3235002 : 1"
       sodipodi:type="inkscape:persp3d" />
    <inkscape:perspective
       id="perspective5691"
       inkscape:persp3d-origin="4.7925 : 2.8823334 : 1"
       inkscape:vp_z="9.585 : 4.3235002 : 1"
       inkscape:vp_y="0 : 1000 : 0"
       inkscape:vp_x="0 : 4.3235002 : 1"
       sodipodi:type="inkscape:persp3d" />
    <inkscape:perspective
       id="perspective6210"
       inkscape:persp3d-origin="4.7925 : 2.8823334 : 1"
       inkscape:vp_z="9.585 : 4.3235002 : 1"
       inkscape:vp_y="0 : 1000 : 0"
       inkscape:vp_x="0 : 4.3235002 : 1"
       sodipodi:type="inkscape:persp3d" />
    <inkscape:perspective
       id="perspective2482"
       inkscape:persp3d-origin="372.04724 : 350.78739 : 1"
       inkscape:vp_z="744.09448 : 526.18109 : 1"
       inkscape:vp_y="0 : 1000 : 0"
       inkscape:vp_x="0 : 526.18109 : 1"
       sodipodi:type="inkscape:persp3d" />
    <filter
       inkscape:collect="always"
       id="filter3522">
      <feGaussianBlur
         inkscape:collect="always"
         stdDeviation="0.27212071"
         id="feGaussianBlur3524" />
    </filter>
    <radialGradient
       inkscape:collect="always"
       xlink:href="#linearGradient4406"
       id="radialGradient4414"
       cx="-289.81601"
       cy="276.15784"
       fx="-289.81601"
       fy="276.15784"
       r="139.62794"
       gradientUnits="userSpaceOnUse" />
    <linearGradient
       inkscape:collect="always"
       xlink:href="#linearGradient4510"
       id="linearGradient4420"
       x1="-289.81601"
       y1="276.15784"
       x2="-176.00163"
       y2="135.35654"
       gradientUnits="userSpaceOnUse" />
    <filter
       inkscape:collect="always"
       id="filter4782">
      <feGaussianBlur
         inkscape:collect="always"
         stdDeviation="2.0907156"
         id="feGaussianBlur4784" />
    </filter>
    <linearGradient
       inkscape:collect="always"
       xlink:href="#linearGradient4510"
       id="linearGradient4923"
       gradientUnits="userSpaceOnUse"
       x1="148.73357"
       y1="299.92065"
       x2="171.20024"
       y2="232.18381"
       gradientTransform="matrix(9.712811,0,0,3.2711097,-1233.9089,-727.76509)" />
    <radialGradient
       inkscape:collect="always"
       xlink:href="#linearGradient5260"
       id="radialGradient5266"
       cx="-310.92825"
       cy="305.47998"
       fx="-310.92825"
       fy="305.47998"
       r="144.02051"
       gradientUnits="userSpaceOnUse"
       gradientTransform="matrix(1.4147947,-3.2469792e-8,3.1629827e-8,1.3781952,120.21414,-104.44158)" />
    <filter
       inkscape:collect="always"
       id="filter5318">
      <feGaussianBlur
         inkscape:collect="always"
         stdDeviation="2.1495599"
         id="feGaussianBlur5320" />
    </filter>
    <clipPath
       clipPathUnits="userSpaceOnUse"
       id="clipPath3341">
      <path
         transform="matrix(0.7197148,0,0,0.7197148,553.10927,127.96697)"
         d="M -150.18806,276.15784 A 139.62794,139.62794 0 1 1 -429.44395,276.15784 A 139.62794,139.62794 0 1 1 -150.18806,276.15784 z"
         sodipodi:ry="139.62794"
         sodipodi:rx="139.62794"
         sodipodi:cy="276.15784"
         sodipodi:cx="-289.81601"
         id="path3343"
         style="opacity:1;fill:none;fill-opacity:1;fill-rule:nonzero;stroke:#000000;stroke-width:3.5999999;stroke-miterlimit:4;stroke-dasharray:none;stroke-opacity:1;display:inline"
         sodipodi:type="arc" />
    </clipPath>
    <filter
       inkscape:collect="always"
       id="filter3243">
      <feGaussianBlur
         inkscape:collect="always"
         stdDeviation="0.31019632"
         id="feGaussianBlur3245" />
    </filter>
  </defs>
  <sodipodi:namedview
     id="base"
     pagecolor="#2c2c2c"
     bordercolor="#666666"
     borderopacity="1.0"
     inkscape:pageopacity="0"
     inkscape:pageshadow="2"
     inkscape:zoom="1"
     inkscape:cx="194.49282"
     inkscape:cy="249.3667"
     inkscape:document-units="px"
     inkscape:current-layer="layer4"
     showgrid="true"
     inkscape:window-width="1278"
     inkscape:window-height="746"
     inkscape:window-x="0"
     inkscape:window-y="26"
     inkscape:window-maximized="0" />
  <metadata
     id="metadata2831">
    <rdf:RDF>
      <cc:Work
         rdf:about="">
        <dc:format>image/svg+xml</dc:format>
        <dc:type
           rdf:resource="http://purl.org/dc/dcmitype/StillImage" />
        <dc:title></dc:title>
      </cc:Work>
    </rdf:RDF>
  </metadata>
  <g
     inkscape:label="frame"
     inkscape:groupmode="layer"
     id="layer1"
     style="display:inline">
    <path
       sodipodi:type="inkscape:offset"
       inkscape:radius="0"
       inkscape:original="M 33.8125 4 C 17.289316 4 4 17.384637 4 34 L 4 486 C 4 502.61536 17.289316 516 33.8125 516 L 486.1875 516 C 502.71068 516 516 502.61536 516 486 L 516 34 C 516 17.384637 502.71068 4 486.1875 4 L 33.8125 4 z "
       xlink:href="#path2890"
       style="fill:#b3b3b3"
       id="path2892"
       inkscape:href="#path2890"
       d="M 33.8125,6 C 17.289316,6 4,19.384637 4,36 L 4,488 C 4,504.61536 17.289316,518 33.8125,518 L 486.1875,518 C 502.71068,518 516,504.61537 516,488 L 516,36 C 516,19.384637 502.7107,6 486.1875,6 L 33.8125,6 z" />
    <path
       sodipodi:type="inkscape:offset"
       inkscape:radius="0"
       inkscape:original="M 33.8125 4 C 17.289316 4 4 17.384637 4 34 L 4 486 C 4 502.61536 17.289316 516 33.8125 516 L 486.1875 516 C 502.71068 516 516 502.61536 516 486 L 516 34 C 516 17.384637 502.71068 4 486.1875 4 L 33.8125 4 z "
       xlink:href="#path2888"
       style="fill:#b3b3b3"
       id="path2890"
       inkscape:href="#path2888"
       d="M 33.8125,6 C 17.289316,6 4,19.384637 4,36 L 4,488 C 4,504.61536 17.289316,518 33.8125,518 L 486.1875,518 C 502.71068,518 516,504.61537 516,488 L 516,36 C 516,19.384637 502.7107,6 486.1875,6 L 33.8125,6 z" />
    <path
       sodipodi:type="inkscape:offset"
       inkscape:radius="0"
       inkscape:original="M 33.8125 4 C 17.289316 4 4 17.384637 4 34 L 4 486 C 4 502.61536 17.289316 516 33.8125 516 L 486.1875 516 C 502.71068 516 516 502.61536 516 486 L 516 34 C 516 17.384637 502.71068 4 486.1875 4 L 33.8125 4 z "
       xlink:href="#path2886"
       style="fill:#b3b3b3"
       id="path2888"
       inkscape:href="#path2886"
       d="M 33.8125,6 C 17.289316,6 4,19.384637 4,36 L 4,488 C 4,504.61536 17.289316,518 33.8125,518 L 486.1875,518 C 502.71068,518 516,504.61537 516,488 L 516,36 C 516,19.384637 502.7107,6 486.1875,6 L 33.8125,6 z" />
    <path
       sodipodi:type="inkscape:offset"
       inkscape:radius="0"
       inkscape:original="M 33.8125 4 C 17.289316 4 4 17.384637 4 34 L 4 486 C 4 502.61536 17.289316 516 33.8125 516 L 486.1875 516 C 502.71068 516 516 502.61536 516 486 L 516 34 C 516 17.384637 502.71068 4 486.1875 4 L 33.8125 4 z "
       xlink:href="#rect2838"
       style="fill:#b3b3b3"
       id="path2886"
       inkscape:href="#rect2838"
       d="M 33.8125,6 C 17.289316,6 4,19.384637 4,36 L 4,488 C 4,504.61536 17.289316,518 33.8125,518 L 486.1875,518 C 502.71068,518 516,504.61537 516,488 L 516,36 C 516,19.384637 502.7107,6 486.1875,6 L 33.8125,6 z" />
    <rect
       style="fill:#666666;fill-opacity:1;stroke:url(#linearGradient3855);stroke-width:3;stroke-linejoin:round;stroke-miterlimit:4;stroke-dasharray:none;filter:url(#filter3937)"
       id="rect2838"
       width="512"
       height="512"
       x="4"
       y="4"
       rx="29.825241"
       ry="29.991631" />
  </g>
  <g
     inkscape:groupmode="layer"
     id="layer3"
     inkscape:label="gamut"
     style="opacity:0.76991152;display:inline">
    <image
       sodipodi:absref="/local/home/jo/svn/darktable/pixmaps/CIExy1931.jpeg"
       xlink:href="CIExy1931.jpeg"
       style="opacity:1;fill:#ffeeaa;fill-opacity:1;fill-rule:nonzero;stroke:none;stroke-width:1;stroke-miterlimit:4;stroke-dasharray:none;stroke-opacity:1"
       transform="matrix(0,1,-1,0,0,0)"
       width="240.43399"
       height="359.49124"
       id="image2484"
       x="132.55678"
       y="-433.39328" />
  </g>
  <g
     inkscape:groupmode="layer"
     id="layer7"
     inkscape:label="glow"
     style="display:inline">
    <image
       sodipodi:absref="/local/home/jo/svn/darktable/pixmaps/CIExy1931.jpeg"
       xlink:href="CIExy1931.jpeg"
       y="-433.39328"
       x="132.55678"
       id="image3629"
       height="359.49124"
       width="240.43399"
       transform="matrix(0,1,-1,0,0,0)"
       style="opacity:1;fill:#ffeeaa;fill-opacity:1;fill-rule:nonzero;stroke:none;stroke-width:1;stroke-miterlimit:4;stroke-dasharray:none;stroke-opacity:1;display:inline" />
  </g>
  <g
     inkscape:groupmode="layer"
     id="layer2"
     inkscape:label="hole"
     style="opacity:1;display:inline">
    <rect
       style="fill:none;fill-opacity:1;stroke:url(#linearGradient3947);stroke-width:2.20000005;stroke-miterlimit:4;stroke-dasharray:none;filter:url(#filter4489)"
       id="rect3075"
       width="360"
       height="240"
       x="74"
       y="132.89069"
       rx="3"
       ry="3" />
  </g>
  <g
     inkscape:groupmode="layer"
     id="layer8"
     inkscape:label="cut_mag"
     style="display:inline">
    <g
       id="g3307"
       inkscape:transform-center-x="119.49176"
       inkscape:transform-center-y="-104.20793"
       transform="matrix(1.3894393,0,0,1.3894393,-134.55923,-109.40169)"
       clip-path="url(#clipPath3341)">
      <image
         sodipodi:absref="/local/home/jo/svn/darktable/pixmaps/CIExy1931.jpeg"
         xlink:href="CIExy1931.jpeg"
         y="-435.39328"
         x="134.55678"
         id="image2451"
         height="359.49124"
         width="240.43399"
         transform="matrix(0,1,-1,0,0,0)"
         style="opacity:1;fill:none;fill-opacity:1;fill-rule:nonzero;stroke:#000000;stroke-width:1;stroke-miterlimit:4;stroke-dasharray:none;stroke-opacity:1;display:inline" />
      <g
         style="opacity:1;fill:#fff0b2;fill-opacity:1;display:inline;filter:url(#filter3522)"
         transform="matrix(27.485239,0,0,27.485239,122.2782,138.05825)"
         id="g3255">
        <path
           style="fill:#fff0b2;fill-opacity:1"
           d="M 5.757,0 L 5.757,6.872 C 5.757,7.472 5.781,8.119 5.805,8.515 L 4.485,8.515 L 4.425,7.592 L 4.401,7.592 C 4.054,8.239 3.346,8.647 2.495,8.647 C 1.103,8.647 0,7.46 0,5.661 C -0.012,3.706 1.211,2.543 2.614,2.543 C 3.418,2.543 3.993,2.879 4.257,3.311 L 4.281,3.311 L 4.281,0 L 5.757,0 z M 4.282,5.109 C 4.282,4.989 4.27,4.845 4.246,4.725 C 4.114,4.149 3.646,3.682 2.975,3.682 C 2.028,3.682 1.5,4.522 1.5,5.613 C 1.5,6.68 2.028,7.46 2.963,7.46 C 3.563,7.46 4.09,7.052 4.234,6.417 C 4.27,6.284 4.282,6.141 4.282,5.984 L 4.282,5.109 z"
           id="path3257" />
        <path
           style="fill:#fff0b2;fill-opacity:1"
           d="M 8.182,1.175 L 8.182,2.674 L 9.585,2.674 L 9.585,3.778 L 8.182,3.778 L 8.182,6.357 C 8.182,7.065 8.374,7.436 8.938,7.436 C 9.214,7.436 9.346,7.412 9.514,7.364 L 9.538,8.491 C 9.322,8.575 8.938,8.647 8.471,8.647 C 7.931,8.647 7.475,8.455 7.2,8.155 C 6.887,7.819 6.743,7.292 6.743,6.524 L 6.743,3.778 L 6.743,2.674 L 6.743,1.594 L 8.182,1.175 z"
           id="path3259" />
      </g>
    </g>
  </g>
  <g
     inkscape:groupmode="layer"
     id="layer6"
     inkscape:label="leter2"
     style="opacity:1;display:inline">
    <g
       style="opacity:1;fill:#fff0b2;fill-opacity:1;display:inline;filter:url(#filter3522)"
       transform="matrix(27.485239,0,0,27.485239,120.2782,136.05825)"
       id="g2538">
      <path
         style="fill:#fff0b2;fill-opacity:1"
         d="M 5.757,0 L 5.757,6.872 C 5.757,7.472 5.781,8.119 5.805,8.515 L 4.485,8.515 L 4.425,7.592 L 4.401,7.592 C 4.054,8.239 3.346,8.647 2.495,8.647 C 1.103,8.647 0,7.46 0,5.661 C -0.012,3.706 1.211,2.543 2.614,2.543 C 3.418,2.543 3.993,2.879 4.257,3.311 L 4.281,3.311 L 4.281,0 L 5.757,0 z M 4.282,5.109 C 4.282,4.989 4.27,4.845 4.246,4.725 C 4.114,4.149 3.646,3.682 2.975,3.682 C 2.028,3.682 1.5,4.522 1.5,5.613 C 1.5,6.68 2.028,7.46 2.963,7.46 C 3.563,7.46 4.09,7.052 4.234,6.417 C 4.27,6.284 4.282,6.141 4.282,5.984 L 4.282,5.109 z"
         id="path2540" />
      <path
         style="fill:#fff0b2;fill-opacity:1"
         d="M 8.182,1.175 L 8.182,2.674 L 9.585,2.674 L 9.585,3.778 L 8.182,3.778 L 8.182,6.357 C 8.182,7.065 8.374,7.436 8.938,7.436 C 9.214,7.436 9.346,7.412 9.514,7.364 L 9.538,8.491 C 9.322,8.575 8.938,8.647 8.471,8.647 C 7.931,8.647 7.475,8.455 7.2,8.155 C 6.887,7.819 6.743,7.292 6.743,6.524 L 6.743,3.778 L 6.743,2.674 L 6.743,1.594 L 8.182,1.175 z"
         id="path2542" />
    </g>
  </g>
  <g
     inkscape:groupmode="layer"
     id="layer5"
     inkscape:label="Letters"
     style="opacity:0.72348489;display:inline">
    <g
       id="g6199"
       transform="matrix(27.485239,0,0,27.485239,120.2782,136.05825)"
       style="opacity:1;fill:#fff9e0;fill-opacity:1">
      <path
         id="path6201"
         d="M 5.757,0 L 5.757,6.872 C 5.757,7.472 5.781,8.119 5.805,8.515 L 4.485,8.515 L 4.425,7.592 L 4.401,7.592 C 4.054,8.239 3.346,8.647 2.495,8.647 C 1.103,8.647 0,7.46 0,5.661 C -0.012,3.706 1.211,2.543 2.614,2.543 C 3.418,2.543 3.993,2.879 4.257,3.311 L 4.281,3.311 L 4.281,0 L 5.757,0 z M 4.282,5.109 C 4.282,4.989 4.27,4.845 4.246,4.725 C 4.114,4.149 3.646,3.682 2.975,3.682 C 2.028,3.682 1.5,4.522 1.5,5.613 C 1.5,6.68 2.028,7.46 2.963,7.46 C 3.563,7.46 4.09,7.052 4.234,6.417 C 4.27,6.284 4.282,6.141 4.282,5.984 L 4.282,5.109 z"
         style="fill:#fff9e0;fill-opacity:1" />
      <path
         id="path6203"
         d="M 8.182,1.175 L 8.182,2.674 L 9.585,2.674 L 9.585,3.778 L 8.182,3.778 L 8.182,6.357 C 8.182,7.065 8.374,7.436 8.938,7.436 C 9.214,7.436 9.346,7.412 9.514,7.364 L 9.538,8.491 C 9.322,8.575 8.938,8.647 8.471,8.647 C 7.931,8.647 7.475,8.455 7.2,8.155 C 6.887,7.819 6.743,7.292 6.743,6.524 L 6.743,3.778 L 6.743,2.674 L 6.743,1.594 L 8.182,1.175 z"
         style="fill:#fff9e0;fill-opacity:1" />
    </g>
  </g>
  <g
     inkscape:groupmode="layer"
     id="layer4"
     inkscape:label="reflect"
     style="opacity:0.48863639;display:inline">
    <path
       style="opacity:0.61363639;fill:url(#linearGradient4923);fill-opacity:1;stroke-width:3.20000005;stroke-linejoin:round;stroke-miterlimit:4;stroke-dasharray:none"
       d="M 514,280.6875 L 514,34.25713 C 514,32.23164 513.80186,30.252219 513.40509,28.344752 C 513.00832,26.437284 512.40576,24.579388 511.65167,22.828564 C 510.89758,21.077739 509.96825,19.416512 508.8963,17.860947 C 507.82436,16.305381 506.61458,14.855018 505.26421,13.53333 C 503.91387,12.211642 502.43867,11.016809 500.84936,9.9676169 C 499.26005,8.9184244 497.56579,8.0237928 495.77698,7.2857133 C 493.98818,6.5476338 492.08984,5.967396 490.14098,5.5790474 C 488.19214,5.1906988 486.19871,5 484.12927,5 L 30.870727,5 C 28.801295,5 26.807855,5.1906988 24.859008,5.5790474 C 22.910162,5.967396 21.01183,6.5476338 19.223023,7.2857133 C 17.434215,8.0237928 15.739947,8.9184244 14.150635,9.9676169 C 12.561323,11.016809 11.086139,12.211642 9.7357792,13.53333 C 8.3854181,14.855018 7.1756522,16.305381 6.1036989,17.860947 C 5.0317451,19.416512 4.1024189,21.077739 3.3483276,22.828564 C 2.5942364,24.579388 1.9916831,26.437284 1.5949097,28.344752 C 1.1981362,30.252219 1,32.23164 1,34.25713 L 1,192.61135 C 119.39129,244.24431 304.56478,278.25343 514,280.6875 z"
       id="path4926" />
  </g>
  <g
     inkscape:groupmode="layer"
     id="layer9"
     inkscape:label="lens"
     style="display:inline">
    <path
       sodipodi:type="arc"
       style="opacity:1;fill:none;fill-opacity:1;fill-rule:nonzero;stroke:#282828;stroke-width:47.09999847;stroke-linecap:butt;stroke-miterlimit:3.20000005;stroke-dasharray:none;stroke-dashoffset:0;stroke-opacity:1;display:inline"
       id="path3783"
       sodipodi:cx="-289.81601"
       sodipodi:cy="276.15784"
       sodipodi:rx="139.62794"
       sodipodi:ry="139.62794"
       d="M -150.18806,276.15784 A 139.62794,139.62794 0 1 1 -429.44395,276.15784 A 139.62794,139.62794 0 1 1 -150.18806,276.15784 z"
       transform="translate(633.95252,68.400648)" />
    <path
       transform="translate(633.95252,68.400648)"
       d="M -150.18806,276.15784 A 139.62794,139.62794 0 1 1 -429.44395,276.15784 A 139.62794,139.62794 0 1 1 -150.18806,276.15784 z"
       sodipodi:ry="139.62794"
       sodipodi:rx="139.62794"
       sodipodi:cy="276.15784"
       sodipodi:cx="-289.81601"
       id="path4400"
       style="opacity:1;fill:none;fill-opacity:1;fill-rule:nonzero;stroke:#676767;stroke-width:0.89999998;stroke-miterlimit:4;stroke-dasharray:none;stroke-opacity:1;display:inline;filter:url(#filter4782)"
       sodipodi:type="arc" />
  </g>
  <g
     inkscape:groupmode="layer"
     id="layer12"
     inkscape:label="rille"
     style="display:inline">
    <path
       transform="matrix(1.1382859,0,0,1.1382859,674.02999,30.211913)"
       d="M -150.18806,276.15784 A 139.62794,139.62794 0 1 1 -429.44395,276.15784 A 139.62794,139.62794 0 1 1 -150.18806,276.15784 z"
       sodipodi:ry="139.62794"
       sodipodi:rx="139.62794"
       sodipodi:cy="276.15784"
       sodipodi:cx="-289.81601"
       id="path5045"
       style="opacity:1;fill:none;fill-opacity:1;fill-rule:nonzero;stroke:url(#radialGradient5266);stroke-width:8.78513908;stroke-linecap:butt;stroke-miterlimit:3.20000005;stroke-dasharray:8.78513913, 8.78513913;stroke-dashoffset:0;stroke-opacity:1;display:inline;filter:url(#filter5318)"
       sodipodi:type="arc" />
  </g>
  <g
     inkscape:groupmode="layer"
     id="layer10"
     inkscape:label="lens_vignett"
     style="opacity:0.45132745;display:inline">
    <path
       sodipodi:type="arc"
       style="opacity:1;fill:url(#radialGradient4414);fill-opacity:1;fill-rule:nonzero;stroke:none;stroke-width:3.5999999;stroke-miterlimit:4;stroke-dasharray:none;stroke-opacity:1;display:inline"
       id="path4403"
       sodipodi:cx="-289.81601"
       sodipodi:cy="276.15784"
       sodipodi:rx="139.62794"
       sodipodi:ry="139.62794"
       d="M -150.18806,276.15784 A 139.62794,139.62794 0 1 1 -429.44395,276.15784 A 139.62794,139.62794 0 1 1 -150.18806,276.15784 z"
       transform="translate(633.95252,68.400648)" />
  </g>
  <g
     inkscape:groupmode="layer"
     id="layer11"
     inkscape:label="lens_reflect"
     style="display:inline">
    <path
       transform="matrix(1.12844,0.4566047,-0.3825974,0.9275387,798.60726,164.11562)"
       d="M -199.46852,276.15784 A 90.347488,71.573982 0 1 1 -380.1635,276.15784 A 90.347488,71.573982 0 1 1 -199.46852,276.15784 z"
       sodipodi:ry="71.573982"
       sodipodi:rx="90.347488"
       sodipodi:cy="276.15784"
       sodipodi:cx="-289.81601"
       id="path4417"
       style="opacity:1;fill:url(#linearGradient4420);fill-opacity:1;fill-rule:nonzero;stroke:none;stroke-width:3.59999989999999981;stroke-miterlimit:4;stroke-dasharray:none;stroke-opacity:1;display:inline;filter:url(#filter3243)"
       sodipodi:type="arc" />
  </g>
</svg>
