<?xml version="1.0" encoding="UTF-8" standalone="no"?>
<!-- Created with Inkscape (http://www.inkscape.org/) -->

<svg
   xmlns:dc="http://purl.org/dc/elements/1.1/"
   xmlns:cc="http://creativecommons.org/ns#"
   xmlns:rdf="http://www.w3.org/1999/02/22-rdf-syntax-ns#"
   xmlns:svg="http://www.w3.org/2000/svg"
   xmlns="http://www.w3.org/2000/svg"
   xmlns:sodipodi="http://sodipodi.sourceforge.net/DTD/sodipodi-0.dtd"
   xmlns:inkscape="http://www.inkscape.org/namespaces/inkscape"
   width="512"
   height="512"
   id="svg2"
   version="1.1"
   inkscape:version="0.48.0 r9654"
   sodipodi:docname="darktablee.svg"
   inkscape:export-filename="/"
   inkscape:export-xdpi="11.264589"
   inkscape:export-ydpi="11.264589">
  <defs
     id="defs4">
    <filter
       inkscape:collect="always"
       id="filter3873"
       color-interpolation-filters="sRGB">
      <feGaussianBlur
         inkscape:collect="always"
         stdDeviation="11.391797"
         id="feGaussianBlur3875" />
    </filter>
    <filter
       inkscape:collect="always"
       id="filter3849"
       x="-0.33068183"
       width="1.6613636"
       y="-0.33068183"
       height="1.6613636"
       color-interpolation-filters="sRGB">
      <feGaussianBlur
         inkscape:collect="always"
         stdDeviation="37.201705"
         id="feGaussianBlur3851" />
    </filter>
    <filter
       inkscape:collect="always"
       id="filter3982"
       x="-0.62386364"
       width="2.2477274"
       y="-0.62386364"
       height="2.2477274"
       color-interpolation-filters="sRGB">
      <feGaussianBlur
         inkscape:collect="always"
         stdDeviation="12.997159"
         id="feGaussianBlur3984" />
    </filter>
    <filter
       inkscape:collect="always"
       id="filter3943"
       x="-0.41659093"
       width="1.8331819"
       y="-0.41659093"
       height="1.8331819"
       color-interpolation-filters="sRGB">
      <feGaussianBlur
         inkscape:collect="always"
         stdDeviation="8.6789775"
         id="feGaussianBlur3945" />
    </filter>
    <filter
       inkscape:collect="always"
       id="filter4107"
       color-interpolation-filters="sRGB">
      <feGaussianBlur
         inkscape:collect="always"
         stdDeviation="9.0000227"
         id="feGaussianBlur4109" />
    </filter>
  </defs>
  <sodipodi:namedview
     id="base"
     pagecolor="#ffffff"
     bordercolor="#666666"
     borderopacity="1.0"
     inkscape:pageopacity="0.0"
     inkscape:pageshadow="2"
     inkscape:zoom="2"
     inkscape:cx="283.21149"
     inkscape:cy="340.45753"
     inkscape:document-units="px"
     inkscape:current-layer="svg2"
     showgrid="true"
     inkscape:window-width="1280"
     inkscape:window-height="947"
     inkscape:window-x="0"
     inkscape:window-y="24"
     inkscape:window-maximized="1" />
  <metadata
     id="metadata7">
    <rdf:RDF>
      <cc:Work
         rdf:about="">
        <dc:format>image/svg+xml</dc:format>
        <dc:type
           rdf:resource="http://purl.org/dc/dcmitype/StillImage" />
        <dc:title></dc:title>
      </cc:Work>
    </rdf:RDF>
  </metadata>
  <g
     inkscape:label="Livello 1"
     inkscape:groupmode="layer"
     id="layer1"
     transform="translate(0,-540.36218)">
    <path
       sodipodi:type="arc"
       style="opacity:0.95;fill:#1a1a1a;fill-opacity:1;stroke:none;filter:url(#filter4107)"
       id="path3947"
       sodipodi:cx="285"
       sodipodi:cy="287"
       sodipodi:rx="225"
       sodipodi:ry="225"
       d="m 510,287 a 225,225 0 1 1 -0.43101,-13.92009"
       transform="matrix(0.95555556,0,0,0.95555556,-17.333333,523.11774)"
       sodipodi:start="0"
       sodipodi:end="6.2212787"
       sodipodi:open="true" />
    <path
       sodipodi:type="arc"
       style="opacity:0.85057475;fill:#ffffff;fill-opacity:1;stroke:none;filter:url(#filter3982)"
       id="path3964"
       sodipodi:cx="255"
       sodipodi:cy="257"
       sodipodi:rx="25"
       sodipodi:ry="25"
       d="m 280,257 a 25,25 0 1 1 -0.0479,-1.54668"
       transform="translate(0,540.36218)"
       sodipodi:start="0"
       sodipodi:end="6.2212787"
       sodipodi:open="true" />
    <g
       id="g3737"
       transform="translate(-709.12708,129.29952)">
      <path
         id="path3735"
         d="m 963.22148,446.72694 c -69.853,0 -132.4779,30.83086 -175.0625,79.625 l 108.3125,127.6875 72.8125,-207.21875 c -2.016,-0.0517 -4.0341,-0.0937 -6.0625,-0.0937 z"
         style="opacity:0.7;fill:#000000;fill-opacity:1;stroke:none;filter:url(#filter3873)"
         inkscape:connector-curvature="0" />
      <path
         id="path3733"
         d="m 1006.4402,450.75819 -55.46872,157.90625 218.43752,-36.75 c -32.3544,-62.13479 -91.9588,-107.79342 -162.9688,-121.15625 z"
         style="opacity:0.7;fill:#000000;fill-opacity:1;stroke:none;filter:url(#filter3873)"
         inkscape:connector-curvature="0" />
      <path
         id="path3731"
         d="m 765.94018,548.35194 c -22.19716,35.61583 -35.03124,77.66073 -35.03124,122.71875 0,25.29181 4.06058,49.64346 11.53125,72.4375 l 165.43749,-27.8125 -141.9375,-167.34375 z"
         style="opacity:0.7;fill:#000000;fill-opacity:1;stroke:none;filter:url(#filter3873)"
         inkscape:connector-curvature="0" />
      <path
         id="path3729"
         d="m 1175.9402,606.35194 -164.6875,27.71875 141.0625,168.0625 c 22.3348,-35.68919 35.25,-77.85866 35.25,-123.0625 0,-25.40267 -4.0896,-49.83849 -11.625,-72.71875 z"
         style="opacity:0.7;fill:#000000;fill-opacity:1;stroke:none;filter:url(#filter3873)"
         inkscape:connector-curvature="0" />
      <path
         id="path3727"
         d="m 1021.659,693.03944 -0.25,0.6875 0.4687,0.1875 -13.9062,36.625 0.2812,1.8125 -1.0312,0.1875 -64.03132,168.56256 c 3.989,0.2037 7.9916,0.3125 12.0313,0.3125 69.68722,0 132.19432,-30.68816 174.78122,-79.28131 L 1021.659,693.03944 z"
         style="opacity:0.7;fill:#000000;fill-opacity:1;stroke:none;filter:url(#filter3873)"
         inkscape:connector-curvature="0" />
      <path
         id="path3714-9"
         d="m 971.65898,739.50819 -216.7813,36.4375 c 31.4241,60.56799 88.738,105.54541 157.2813,120.28131 l 59.5,-156.71881 z"
         style="opacity:0.7;fill:#000000;fill-opacity:1;stroke:none;filter:url(#filter3873)"
         inkscape:connector-curvature="0" />
    </g>
    <path
       style="fill:#d70016;fill-opacity:1;fill-rule:nonzero;stroke:none;filter:url(#filter3891)"
       d="m 258.10916,562.40366 c -69.85301,0 -132.47785,30.83086 -175.062496,79.625 l 108.312496,127.6875 72.8125,-207.21875 c -2.01599,-0.0517 -4.03403,-0.0937 -6.0625,-0.0937 z"
       id="path3755"
       inkscape:connector-curvature="0" />
    <path
       style="fill:#ff7004;fill-opacity:1;fill-rule:nonzero;stroke:none;filter:url(#filter3903)"
       d="m 301.32791,566.43491 -55.46875,157.90625 218.4375,-36.75 C 431.9423,625.45637 372.33791,579.79774 301.32791,566.43491 z"
       id="path3753"
       inkscape:connector-curvature="0" />
    <path
       style="fill:#f7f10e;fill-opacity:1;fill-rule:nonzero;stroke:none;filter:url(#filter3915)"
       d="m 470.82791,722.02866 -164.6875,27.71875 141.0625,168.0625 c 22.3348,-35.68919 35.25,-77.85866 35.25,-123.0625 0,-25.40267 -4.0896,-49.83849 -11.625,-72.71875 z"
       id="path3749"
       inkscape:connector-curvature="0" />
    <path
       style="fill:#17b414;fill-opacity:1;fill-rule:nonzero;stroke:none;filter:url(#filter3927)"
       d="m 316.54666,808.71616 -0.25,0.6875 0.46875,0.1875 -13.90625,36.625 c -6.27935,17.39953 14.75924,-37.8342 14.25,-36.5 l -79.03125,207.06244 c -0.19468,0.5101 7.99158,0.3125 12.03125,0.3125 69.6872,0 132.19435,-30.68804 174.78125,-79.28119 z"
       id="path3747"
       inkscape:connector-curvature="0"
       sodipodi:nodetypes="ccccscscc" />
    <path
       style="fill:#1476e6;fill-opacity:1;fill-rule:nonzero;stroke:none;filter:url(#filter3865)"
       d="M 266.54666,855.18491 49.765409,891.62241 C 81.189514,952.1904 138.50335,997.16778 207.04666,1011.9036 l 59.5,-156.71869 z"
       id="path3714"
       inkscape:connector-curvature="0" />
    <path
       style="fill:#9100be;fill-opacity:1;fill-rule:nonzero;stroke:none;filter:url(#filter3878)"
       d="m 60.827909,664.02866 c -22.197172,35.61583 -35.03125,77.66073 -35.03125,122.71875 0,25.29181 4.060577,49.64346 11.53125,72.4375 L 202.76541,831.37241 60.827909,664.02866 z"
       id="path3751"
       inkscape:connector-curvature="0" />
    <path
       inkscape:connector-curvature="0"
       style="opacity:0.15;fill:#ffffff;fill-opacity:1;fill-rule:nonzero;stroke:none;filter:url(#filter3842)"
       d="m 249.65916,572.76928 c -62.86771,0 -119.23006,27.74778 -157.556246,71.6625 l 97.481246,114.91876 65.53125,-186.49688 c -1.81439,-0.0465 -3.63063,-0.0843 -5.45625,-0.0843 z"
       id="path3755-0"
       transform="matrix(0.9,0,0,0.9,17.360916,66.605991)" />
    <path
       inkscape:connector-curvature="0"
       style="opacity:0.15;fill:#ffffff;fill-opacity:1;fill-rule:nonzero;stroke:none;filter:url(#filter3864)"
       d="m 66.173222,673.78647 c -19.977455,32.05425 -31.528125,69.89466 -31.528125,110.44688 0,22.76263 3.654519,44.67911 10.378125,65.19375 L 193.91697,824.39585 66.173222,673.78647 z"
       id="path3751-9" />
    <path
       inkscape:connector-curvature="0"
       style="opacity:0.1;fill:#ffffff;fill-opacity:1;fill-rule:nonzero;stroke:none;filter:url(#filter3931)"
       d="M 255.7076,863.02084 60.604472,895.81459 c 28.281694,54.5112 79.864148,94.99084 141.553128,108.25311 l 53.55,-141.04686 z"
       id="path3714-4"
       transform="matrix(0.9,0,0,0.9,15.815604,93.354427)" />
    <path
       inkscape:connector-curvature="0"
       style="opacity:0.15;fill:#ffffff;fill-opacity:1;fill-rule:nonzero;stroke:none;filter:url(#filter3908)"
       d="m 306.70291,574.33022 -49.92188,142.11563 196.59375,-33.075 C 424.25586,627.44954 370.61191,586.35677 306.70291,574.33022 z"
       id="path3753-9" />
    <path
       inkscape:connector-curvature="0"
       style="opacity:0.15;fill:#ffffff;fill-opacity:1;fill-rule:nonzero;stroke:none;filter:url(#filter3930)"
       d="m 318.04041,819.13491 -0.225,0.61875 0.42187,0.16875 c 0,0 -40.13531,115.83109 -70.01562,186.96249 53.53342,19.1824 77.17398,-184.43769 69.825,-187.19999 -22.51949,63.22919 -74.23403,186.52209 -70.62813,186.70619 58.26437,13.968 176.91162,-60.60984 168.13125,-71.07182 z"
       id="path3747-3"
       sodipodi:nodetypes="ccccccsc" />
    <path
       inkscape:connector-curvature="0"
       style="opacity:0.15;fill:#ffffff;fill-opacity:1;fill-rule:nonzero;stroke:none;filter:url(#filter3956)"
       d="M 463.17478,731.81772 317.45603,756.2646 444.91228,902.02085 c 20.10132,-32.12027 28.725,-64.0728 28.725,-104.75625 0,-22.86241 -3.68064,-44.85464 -10.4625,-65.44688 z"
       id="path3749-5"
       sodipodi:nodetypes="cccsc" />
    <path
       sodipodi:type="arc"
       style="opacity:0.38793102;fill:#ffffff;fill-opacity:1;stroke:none;filter:url(#filter3849)"
       id="path3065"
       sodipodi:cx="285"
       sodipodi:cy="317"
       sodipodi:rx="135"
       sodipodi:ry="135"
       d="m 420,317 a 135,135 0 1 1 -0.25861,-8.35205"
       transform="matrix(0.92592593,0,0,0.90740741,-18.888889,502.21403)"
       sodipodi:start="0"
       sodipodi:end="6.2212787"
       sodipodi:open="true" />
    <path
       sodipodi:type="arc"
       style="opacity:0.903;fill:#cccccc;fill-opacity:1;stroke:none;filter:url(#filter3943)"
       id="path3986"
       sodipodi:cx="255"
       sodipodi:cy="257"
       sodipodi:rx="25"
       sodipodi:ry="25"
       d="m 280,257 a 25,25 0 1 1 -0.0479,-1.54668"
       transform="translate(0,540.36218)"
       sodipodi:start="0"
       sodipodi:end="6.2212787"
       sodipodi:open="true" />
  </g>
</svg>
