<?xml version="1.0" encoding="UTF-8" standalone="no"?>
<!-- Created with Inkscape (http://www.inkscape.org/) -->

<svg
   xmlns:dc="http://purl.org/dc/elements/1.1/"
   xmlns:cc="http://creativecommons.org/ns#"
   xmlns:rdf="http://www.w3.org/1999/02/22-rdf-syntax-ns#"
   xmlns:svg="http://www.w3.org/2000/svg"
   xmlns="http://www.w3.org/2000/svg"
   xmlns:sodipodi="http://sodipodi.sourceforge.net/DTD/sodipodi-0.dtd"
   xmlns:inkscape="http://www.inkscape.org/namespaces/inkscape"
   width="900"
   height="900"
   id="svg2"
   version="1.1"
   inkscape:version="0.48.1 r9760"
   sodipodi:docname="hasselblad.svg">
  <title
     id="title3163">Hasselblad Frame</title>
  <defs
     id="defs4">
    <filter
       inkscape:collect="always"
       id="filter3764">
      <feGaussianBlur
         inkscape:collect="always"
         stdDeviation="0.22500001"
         id="feGaussianBlur3766" />
    </filter>
  </defs>
  <sodipodi:namedview
     id="base"
     pagecolor="#ffffff"
     bordercolor="#666666"
     borderopacity="1.0"
     inkscape:pageopacity="0"
     inkscape:pageshadow="2"
     inkscape:zoom="7.9822222"
     inkscape:cx="829.07882"
     inkscape:cy="903.9334"
     inkscape:document-units="px"
     inkscape:current-layer="layer1"
     showgrid="false"
     units="in"
     inkscape:window-width="1920"
     inkscape:window-height="1123"
     inkscape:window-x="0"
     inkscape:window-y="24"
     inkscape:window-maximized="1" />
  <metadata
     id="metadata7">
    <rdf:RDF>
      <cc:Work
         rdf:about="">
        <dc:format>image/svg+xml</dc:format>
        <dc:type
           rdf:resource="http://purl.org/dc/dcmitype/StillImage" />
        <dc:title>Hasselblad Frame</dc:title>
        <dc:creator>
          <cc:Agent>
            <dc:title>Pascal de Bruijn</dc:title>
          </cc:Agent>
        </dc:creator>
      </cc:Work>
    </rdf:RDF>
  </metadata>
  <g
     inkscape:label="Layer 1"
     inkscape:groupmode="layer"
     id="layer1"
     transform="translate(0,-152.35975)">
    <path
       style="fill:#000000;filter:url(#filter3764)"
       d="m -4.9999998e-7,602.35974 0,-450 L 450,152.35974 l 450,0 0,450 0,450.00006 -450,0 L -5e-7,1052.3598 l 0,-450.00006 z M 880.33791,1037.8458 c 0.88695,-0.4082 1.55457,-0.498 2.63541,-0.3546 1.70157,0.2257 2.65233,-1.0358 2.0247,-2.6866 -0.16392,-0.4312 -0.29802,-1.4405 -0.29802,-2.243 0,-0.9628 -0.17034,-1.6293 -0.50097,-1.9599 -1.05357,-1.0536 -3.12735,-3.9019 -3.26427,-4.4835 -0.19248,-0.8175 -0.63444,-3.0873 -1.17897,-6.0549 -0.59676,-3.2523 -0.93645,-12.2601 -0.89193,-23.65353 0.13518,-34.61094 0.50085,-75.95664 0.74685,-84.45003 0.16011,-5.5275 0.42276,-31.7175 0.58365,-58.2 0.16089,-26.4825 0.42783,-59.9625 0.59322,-74.4 0.16536,-14.4375 0.37155,-40.6275 0.45819,-58.2 0.0866,-17.5725 0.23037,-41.7375 0.31938,-53.7 0.59727,-80.27229 0.70173,-188.59729 0.38793,-402.30001 -0.0752,-51.20213 -0.0153,-64.80222 0.29871,-67.8 0.216,-2.0625 0.50052,-4.83 0.63228,-6.15 0.71772,-7.19138 1.78362,-11.00546 3.60504,-12.9 2.06478,-2.14763 2.11089,-2.30119 2.11089,-7.03028 0,-3.99453 -0.0315,-4.21972 -0.58944,-4.21972 -0.32421,0 -0.74007,0.28143 -0.92415,0.6254 -0.86454,1.6154 1.02474,1.55292 -45.43641,1.50278 -23.595,-0.0255 -53.7675,-0.12342 -67.05,-0.21767 -56.30103,-0.39954 -756.277918,-0.0421 -756.975,0.38655 -0.123751,0.0761 -0.225001,1.22377 -0.225001,2.5504 0,2.41205 0,2.41205 2.497757,4.8573 3.966923,3.88353 3.674519,0.28845 3.541735,43.54525 -0.06078,19.79999 -0.147239,36.87749 -0.192132,37.95 -0.04489,1.0725 -0.227973,14.91 -0.406843,30.75 -0.178871,15.83999 -0.407115,31.23 -0.507209,34.2 -0.100093,2.97 -0.229344,18.1575 -0.287225,33.75 -0.203039,54.69711 -0.734262,148.46769 -0.907554,160.19999 -0.626678,42.42756 -0.356016,39.30399 -3.704356,42.75 C 15.512417,561.88754 14.1,563.88392 14.1,564.6224 c 0,0.18063 1.336949,1.63119 2.970998,3.22353 2.932661,2.85774 2.974276,2.91813 3.225,4.67946 0.302912,2.12793 0.345031,56.42025 0.04673,60.23493 -0.233016,2.97984 -0.309481,3.13368 -3.006503,6.04941 -3.528397,3.8145 -3.528934,4.17459 -0.01123,7.52886 2.625,2.50305 2.625,2.50305 2.873397,5.28708 0.420482,4.71279 0.57866,82.34178 0.233682,114.68406 -0.377795,35.41884 -0.457908,67.38657 -0.410493,163.8 0.03896,79.21467 -0.117227,87.21657 -1.837102,94.12177 -0.389434,1.5635 -1.982151,4.1283 -2.563672,4.1283 -1.430135,0 -2.420726,2.189 -2.416218,5.3394 0.0025,1.7658 0.103777,3.3478 0.225,3.5155 0.359986,0.4981 503.649121,0.7939 622.420411,0.3658 83.24148,-0.3 116.45592,-0.2777 124.35,0.083 3.5475,0.1623 21.3675,0.3039 39.6,0.3147 18.2325,0.011 36.0525,0.1198 39.6,0.2423 13.69173,0.4728 39.61137,0.2352 40.93791,-0.3752 z"
       id="path3142"
       inkscape:connector-curvature="0"
       transform="matrix(1.0087895,0,0,1.0087894,-3.9552747,-5.294401)" />
  </g>
</svg>
