<?xml version="1.0" encoding="UTF-8" standalone="no"?>
<!-- Created with Inkscape (http://www.inkscape.org/) -->

<svg
   xmlns:dc="http://purl.org/dc/elements/1.1/"
   xmlns:cc="http://creativecommons.org/ns#"
   xmlns:rdf="http://www.w3.org/1999/02/22-rdf-syntax-ns#"
   xmlns:svg="http://www.w3.org/2000/svg"
   xmlns="http://www.w3.org/2000/svg"
   xmlns:xlink="http://www.w3.org/1999/xlink"
   xmlns:sodipodi="http://sodipodi.sourceforge.net/DTD/sodipodi-0.dtd"
   xmlns:inkscape="http://www.inkscape.org/namespaces/inkscape"
   width="200"
   height="200"
   id="svg2"
   sodipodi:version="0.32"
   inkscape:version="0.48.1 r9760"
   version="1.0"
   sodipodi:docname="soften.svg"
   inkscape:output_extension="org.inkscape.output.svg.inkscape"
   inkscape:export-filename="/home/rip/personal/programs/darktable/data/pixmaps/plugins/darkroom/soften.png"
   inkscape:export-xdpi="10.8"
   inkscape:export-ydpi="10.8">
  <defs
     id="defs4">
    <linearGradient
       id="linearGradient3804">
      <stop
         style="stop-color:#848484;stop-opacity:1;"
         offset="0"
         id="stop3806" />
      <stop
         style="stop-color:#ffffff;stop-opacity:1;"
         offset="1"
         id="stop3808" />
    </linearGradient>
    <inkscape:perspective
       sodipodi:type="inkscape:persp3d"
       inkscape:vp_x="0 : 526.18109 : 1"
       inkscape:vp_y="0 : 1000 : 0"
       inkscape:vp_z="744.09448 : 526.18109 : 1"
       inkscape:persp3d-origin="372.04724 : 350.78739 : 1"
       id="perspective10" />
    <linearGradient
       inkscape:collect="always"
       xlink:href="#linearGradient3804"
       id="linearGradient3810"
       x1="25.575741"
       y1="105.46057"
       x2="169.70425"
       y2="105.46057"
       gradientUnits="userSpaceOnUse" />
  </defs>
  <sodipodi:namedview
     id="base"
     pagecolor="#ffffff"
     bordercolor="#666666"
     borderopacity="1.0"
     gridtolerance="10000"
     guidetolerance="10"
     objecttolerance="10"
     inkscape:pageopacity="0.0"
     inkscape:pageshadow="2"
     inkscape:zoom="1.01125"
     inkscape:cx="117.78664"
     inkscape:cy="96.046153"
     inkscape:document-units="px"
     inkscape:current-layer="layer1"
     showgrid="true"
     units="px"
     inkscape:window-width="1680"
     inkscape:window-height="1003"
     inkscape:window-x="0"
     inkscape:window-y="25"
     inkscape:window-maximized="1"
     inkscape:snap-grids="false">
    <inkscape:grid
       type="xygrid"
       id="grid2383"
       visible="true"
       enabled="true" />
  </sodipodi:namedview>
  <metadata
     id="metadata7">
    <rdf:RDF>
      <cc:Work
         rdf:about="">
        <dc:format>image/svg+xml</dc:format>
        <dc:type
           rdf:resource="http://purl.org/dc/dcmitype/StillImage" />
        <dc:title></dc:title>
      </cc:Work>
    </rdf:RDF>
  </metadata>
  <g
     inkscape:label="Layer 1"
     inkscape:groupmode="layer"
     id="layer1">
    <path
       style="fill:none;stroke:#cacac6;stroke-width:10;stroke-linecap:butt;stroke-linejoin:miter;stroke-miterlimit:4;stroke-opacity:1;stroke-dasharray:none"
       d="M 148.78125,51.46875 C 133.90791,38.687338 115.88671,30.290988 100,30 73.023567,30 49.624665,45.266612 37.9375,67.625 M 30,100 c 0,38.65993 31.340068,70 70,70 29.70614,0 55.05471,-18.51204 65.21875,-44.625"
       id="path2385"
       inkscape:connector-curvature="0"
       sodipodi:nodetypes="ccccsc" />
    <path
       style="color:#000000;fill:url(#linearGradient3810);fill-opacity:1.0;stroke:none;stroke-width:9.98999977000000072;marker:none;visibility:visible;display:inline;overflow:visible;enable-background:accumulate"
       d="m 149.73199,66.767326 c -4.66886,0 -9.33772,0.793861 -12.5,2.375 -14.14214,7.071068 -22.64927,15.301342 -41.093749,23 -6.41842,2.67902 -32.59375,4.15625 -32.59375,4.15625 0,0 10.566476,-7.034275 11.625,-16.625 -5.481784,11.998988 -17.84375,13.75 -17.84375,13.75 0,0 2.659398,0.555553 -1.15625,-0.1875 7.637979,-1.21839 8.337928,-12.859557 11.125,-14.96875 -2.259396,1.105113 -6.872644,12.461481 -16.3125,13.875 -0.216865,-0.04428 -0.406154,-0.08029 -0.625,-0.125 0.09312,0.09069 0.188802,0.160124 0.28125,0.25 -0.189538,0.06679 -0.306653,0.119589 -0.5,0.1875 0,0 0.594534,0.288583 1.34375,0.65625 14.329359,13.839894 20.736701,17.562504 40.9375,17.562504 13.342839,0 34.843169,-6.50564 46.812499,-16.968754 -18.22108,22.998594 -36.03846,28.468754 -54.906249,28.468754 -10.000005,0 -34.13438,-14.14073 -46.15625,-27.406254 0,0 4.15625,9.125004 9.15625,19.125004 2.152749,4.3055 5.187727,8.20235 8.84375,11.625 l -3.90625,-13 c 0,0 2.562949,5.73274 8.9375,17.125 13.288524,9.75903 31.69215,14.78509 46.031249,14.5 18.19189,-0.36169 45.42954,-17.32526 57.15625,-37.5625 -9.24995,0.81345 -21.03125,-4.125 -21.03125,-4.125 0,0 12.5847,1.98655 22.9375,0.4375 2.65188,-6.024464 3.92079,-12.346597 3.21875,-18.718754 -0.70748,-6.42164 2.71875,-10.03125 -7.28125,-15.03125 -3.16228,-1.581139 -7.83114,-2.375 -12.5,-2.375 z m -122.156249,2.9375 -2,1.375 c 0.0442,0.141343 0.06187,0.272288 0.125,0.40625 0.119014,0.252542 0.266578,0.50827 0.40625,0.75 0.69577,1.204173 0.778371,1.30599 1.59375,2.59375 1.45041,2.290689 0.965391,1.530848 2.59375,3.9375 2.397492,3.511468 4.835086,7.020617 7.53125,10.3125 2.060085,2.515262 2.683657,3.120269 4.90625,5.53125 4.695889,4.85329 9.938079,9.169664 15.5625,12.906254 1.155749,0.76783 2.327746,1.50762 3.5,2.25 5.079839,2.99232 10.453719,5.58804 16.1875,7.0625 1.56364,0.40209 3.14985,0.75391 4.75,0.96875 1.6776,0.22525 3.37372,0.22916 5.0625,0.34375 3.66132,-0.25955 7.31077,-0.43459 10.9375,-1.0625 4.302309,-0.74487 7.364019,-1.6591 11.468749,-3.15625 1.87915,-0.68539 3.74254,-1.42011 5.5625,-2.25 1.75972,-0.80242 3.43655,-1.7713 5.15625,-2.65625 l 4.59375,-2.9375 c 0.0613,-0.032 0.0302,-0.12575 -0.0313,-0.0937 l -5,2.0625 c -3.18175,1.26689 -7.55974,3.04969 -10.8125,4.09375 -3.16733,1.01663 -7.92368,2.2155 -11.218749,2.78125 -1.77192,0.30423 -3.548,0.6006 -5.34375,0.6875 -1.67953,0.0812 -3.38204,-0.1285 -5.0625,-0.1875 -3.95515,-0.47142 -5.31849,-0.50028 -9.15625,-1.46875 -5.491236,-1.38573 -10.670513,-3.78601 -15.53125,-6.65625 -1.14035,-0.71367 -2.281815,-1.41776 -3.40625,-2.15625 -5.465494,-3.58954 -10.625359,-7.686824 -15.1875,-12.375004 -0.822281,-0.899913 -1.668774,-1.798952 -2.46875,-2.71875 -3.524631,-4.052559 -6.583611,-8.479393 -9.65625,-12.875 -0.864003,-1.287177 -1.738618,-2.550662 -2.59375,-3.84375 -0.549205,-0.830481 -1.08127,-1.665924 -1.625,-2.5 -0.157701,-0.241912 -0.293473,-0.520503 -0.46875,-0.75 -0.109434,-0.143285 -0.249863,-0.245203 -0.375,-0.375 z"
       id="path3003"
       inkscape:connector-curvature="0" />
  </g>
</svg>
