<?xml version="1.0" encoding="UTF-8" standalone="no"?>
<!-- Created with Inkscape (http://www.inkscape.org/) -->

<svg
   width="132.4406mm"
   height="21.468601mm"
   viewBox="0 0 132.4406 21.468601"
   version="1.1"
   id="svg5"
   inkscape:version="1.2.2 (b0a8486541, 2022-12-01)"
   sodipodi:docname="darktable.svg"
   inkscape:export-filename="darktable2.svg"
   inkscape:export-xdpi="96"
   inkscape:export-ydpi="96"
   xmlns:inkscape="http://www.inkscape.org/namespaces/inkscape"
   xmlns:sodipodi="http://sodipodi.sourceforge.net/DTD/sodipodi-0.dtd"
   xmlns="http://www.w3.org/2000/svg"
   xmlns:svg="http://www.w3.org/2000/svg">
  <sodipodi:namedview
     id="namedview7"
     pagecolor="#ffffff"
     bordercolor="#666666"
     borderopacity="1.0"
     inkscape:showpageshadow="2"
     inkscape:pageopacity="0.0"
     inkscape:pagecheckerboard="0"
     inkscape:deskcolor="#d1d1d1"
     inkscape:document-units="mm"
     showgrid="false"
     inkscape:zoom="1.1935164"
     inkscape:cx="92.164632"
     inkscape:cy="696.2619"
     inkscape:window-width="2560"
     inkscape:window-height="1576"
     inkscape:window-x="0"
     inkscape:window-y="0"
     inkscape:window-maximized="1"
     inkscape:current-layer="layer1" />
  <defs
     id="defs2" />
  <g
     inkscape:label="Calque 1"
     inkscape:groupmode="layer"
     id="layer1"
     transform="translate(-38.61295,-94.088161)">
    <path
       style="fill:#ffffff;fill-opacity:1;stroke-width:0.116546"
       d="m 43.319795,115.52412 c -0.952467,-0.0842 -1.532015,-0.27466 -2.276716,-0.74849 -1.031327,-0.65619 -1.612788,-1.52397 -2.108794,-3.14718 -0.304964,-0.99802 -0.320559,-1.16486 -0.321324,-3.43813 -7.02e-4,-2.08197 0.03261,-2.52348 0.258779,-3.43337 0.702643,-2.82637 2.139757,-3.90503 5.205609,-3.90723 1.433561,-8.8e-4 2.997806,0.21992 4.447427,0.62818 l 0.968855,0.27286 0.0307,-3.802163 0.0307,-3.802155 h 1.806481 1.806472 l 0.02979,10.634878 0.02979,10.63489 h -1.494301 -1.494294 l -0.334223,-0.69928 c -0.183827,-0.3846 -0.378339,-0.69928 -0.432249,-0.69928 -0.05393,0 -0.450732,0.17737 -0.881806,0.39415 -1.687603,0.84863 -3.625706,1.25765 -5.270832,1.11232 z m 4.228501,-3.12466 c 0.498802,-0.13139 1.141259,-0.34256 1.427695,-0.46926 l 0.520783,-0.23038 v -3.78744 c 0,-2.43021 -0.04227,-3.81358 -0.117994,-3.86036 -0.308608,-0.19073 -2.858131,-0.53145 -3.977701,-0.53159 -1.968765,-2.4e-4 -2.432669,0.29717 -2.840724,1.82119 -0.261995,0.97851 -0.359228,3.54669 -0.177077,4.6771 0.219746,1.36377 0.639606,2.09399 1.461245,2.54139 0.469151,0.25547 2.450304,0.16954 3.703773,-0.16065 z m 12.088045,3.11575 c -1.357716,-0.13588 -2.225348,-0.55256 -3.012398,-1.4467 -0.712837,-0.80983 -0.858942,-1.38914 -0.813559,-3.22579 0.03334,-1.34759 0.07388,-1.61761 0.316924,-2.11142 0.51233,-1.04073 1.324003,-1.65146 2.655867,-1.99836 0.517012,-0.13468 1.413876,-0.17428 3.94672,-0.17428 1.802719,0 3.299581,-0.0219 3.326363,-0.0487 0.02678,-0.0268 0.02004,-0.52406 -0.01503,-1.10509 -0.05794,-0.95973 -0.09414,-1.08814 -0.396248,-1.40347 -0.509515,-0.53182 -1.211712,-0.62776 -3.899625,-0.53281 -1.256111,0.0444 -2.96564,0.12247 -3.798948,0.17355 -0.833308,0.0511 -1.554443,0.0695 -1.602513,0.041 -0.118531,-0.0703 -0.111827,-1.99059 0.0073,-2.06415 0.160244,-0.099 2.355986,-0.51998 3.401789,-0.65216 1.865528,-0.23578 5.085301,-0.28189 6.185696,-0.0886 1.753346,0.308 2.932072,1.10892 3.527206,2.39665 0.245808,0.53187 0.252667,0.68387 0.286071,6.34313 l 0.03425,5.7982 h -1.439409 -1.439409 l -0.38489,-0.79561 -0.384898,-0.79562 -0.721591,0.38316 c -1.778069,0.94416 -4.118058,1.47336 -5.779545,1.30707 z m 4.00022,-3.0711 c 0.629649,-0.16546 1.429453,-0.40732 1.777331,-0.53748 l 0.632519,-0.23666 v -1.50673 c 0,-0.8287 -0.03935,-1.50656 -0.08745,-1.50635 -0.0481,2.4e-4 -1.261868,0.0782 -2.697315,0.17322 -3.579913,0.23707 -3.736958,0.32668 -3.740174,2.13399 -0.0018,1.15616 0.179309,1.59598 0.728167,1.76591 0.576342,0.17844 2.113649,0.0487 3.386886,-0.2859 z m 54.363569,3.07324 c -1.46905,-0.15238 -2.87781,-1.07987 -3.42853,-2.25724 -0.24232,-0.51807 -0.27269,-0.75362 -0.2737,-2.12262 -9.1e-4,-1.84467 0.20002,-2.5369 0.96748,-3.32555 1.05532,-1.08446 1.8775,-1.25328 6.10387,-1.25328 h 3.18363 v -0.87784 c 0,-1.5129 -0.4315,-2.05783 -1.75073,-2.21094 -0.54103,-0.0628 -3.03931,0.008 -7.63129,0.21747 l -0.34964,0.0159 v -1.0461 -1.0461 l 0.87411,-0.2063 c 1.71026,-0.40366 3.60447,-0.5903 6.11869,-0.60291 2.63198,-0.0132 3.24549,0.072 4.31224,0.59879 0.76396,0.37727 1.6045,1.25943 1.8756,1.96852 0.19882,0.51999 0.21995,1.04484 0.25382,6.30711 l 0.037,5.73993 h -1.44573 -1.44573 l -0.3833,-0.72841 c -0.21081,-0.40063 -0.39638,-0.74497 -0.41236,-0.76519 -0.016,-0.0202 -0.33594,0.11746 -0.711,0.30595 -2.01018,1.01023 -4.12401,1.4724 -5.8944,1.28878 z m 3.05634,-2.8327 c 1.03047,-0.18296 1.90644,-0.4198 2.82798,-0.76459 l 0.66843,-0.25009 v -1.51943 -1.51944 l -0.96152,0.0717 c -0.52883,0.0395 -1.76783,0.12582 -2.75332,0.19201 -2.617,0.17579 -2.81178,0.32076 -2.81178,2.09268 0,0.8156 0.0482,1.18239 0.18004,1.37064 0.33966,0.48494 1.32336,0.59764 2.85017,0.32656 z m 18.46146,2.83266 c -1.26439,-0.11332 -3.10619,-0.69589 -4.19234,-1.32605 l -0.47403,-0.27502 -0.36983,0.74999 -0.36985,0.74998 h -1.45792 -1.45792 V 104.75219 94.088161 h 1.80647 1.80648 v 3.858516 c 0,3.236173 0.026,3.848533 0.16112,3.796673 1.42487,-0.54676 3.47566,-0.89083 5.31657,-0.89196 3.76666,-0.002 5.31498,1.84541 5.51497,6.58138 0.16742,3.96478 -0.87138,6.65597 -2.93321,7.59907 -0.99025,0.45296 -2.0309,0.60374 -3.35051,0.48547 z m 0.84858,-2.90536 c 1.2237,-0.46136 1.82006,-2.16334 1.71267,-4.88782 -0.0631,-1.60144 -0.20835,-2.36499 -0.5985,-3.14676 -0.49059,-0.98301 -0.74953,-1.07566 -2.82565,-1.01094 -0.92946,0.029 -2.14884,0.14289 -2.70972,0.25314 l -1.01978,0.20046 v 3.876 3.876 l 0.67015,0.24398 c 1.67245,0.60888 3.97396,0.89636 4.77083,0.59594 z m 19.96621,2.70936 c -2.54833,-0.66608 -3.41643,-2.46377 -3.41541,-7.07272 9.1e-4,-3.93817 0.62087,-5.58296 2.47754,-6.57255 1.05229,-0.56087 2.25591,-0.74381 4.86356,-0.73923 3.38162,0.006 4.75042,0.30938 5.61199,1.24407 0.57481,0.62359 0.88207,1.21363 1.05371,2.02345 0.19611,0.92519 0.16458,2.56362 -0.0621,3.22894 -0.25782,0.75666 -0.98733,1.47013 -1.85741,1.81655 -0.66572,0.26506 -0.81664,0.27546 -4.57597,0.31504 l -3.88755,0.0409 0.0772,0.66169 c 0.15977,1.36952 0.43025,1.87433 1.21007,2.25849 0.52607,0.25915 0.64544,0.26795 3.63243,0.26795 2.55403,0 4.44073,-0.0765 5.17484,-0.20985 0.0835,-0.0151 0.13967,0.34959 0.16147,1.04842 0.0394,1.26579 0.10151,1.20194 -1.43199,1.47409 -2.60268,0.46188 -7.6296,0.5814 -9.03237,0.21473 z m 6.20268,-8.30164 c 0.6058,-0.16824 0.79013,-0.48521 0.79013,-1.35868 0,-0.99633 -0.25511,-1.59267 -0.79576,-1.86012 -0.35922,-0.17769 -0.71823,-0.21109 -2.23446,-0.20784 -2.1354,0.005 -2.64402,0.11992 -3.13027,0.70981 -0.36761,0.44598 -0.42723,0.66178 -0.55089,1.99359 l -0.0784,0.84497 2.78304,-8.8e-4 c 1.55543,-3.5e-4 2.97431,-0.0537 3.21666,-0.12108 z m -93.845831,1.17065 v -7.2259 h 1.49951 1.49949 l 0.3188,0.8741 c 0.17534,0.48076 0.35755,0.8741 0.40492,0.8741 0.0474,0 0.52371,-0.263 1.05853,-0.58443 0.53482,-0.32143 1.395437,-0.72383 1.912487,-0.89421 0.81379,-0.26816 1.14363,-0.31099 2.45519,-0.3188 0.83331,-0.005 1.60688,0.0287 1.71907,0.0747 0.17952,0.0737 0.20395,0.26569 0.20395,1.60262 v 1.51885 l -1.90649,-0.006 c -2.56287,-0.009 -3.782767,0.29259 -5.057177,1.249 l -0.37878,0.28426 v 4.88903 4.88903 h -1.86474 -1.86476 v -7.2259 z m 13.198307,-3.35071 0.0298,-10.576622 1.83454,-0.03216 1.83453,-0.03216 0.0302,5.859422 0.0302,5.85943 0.46619,0.0334 c 0.44203,0.0316 0.52661,-0.0222 1.63166,-1.03868 2.69018,-2.47454 3.51905,-3.23154 3.9197,-3.57989 l 0.4233,-0.36804 h 2.28641 c 1.25752,0 2.286024,0.0393 2.285534,0.0875 -9.1e-4,0.10144 -0.4594,0.54399 -2.388334,2.30578 -0.7692,0.70257 -1.73945,1.59638 -2.15611,1.98627 -0.41665,0.38987 -1.03289,0.96099 -1.36943,1.26913 -0.33653,0.30815 -0.61147,0.59244 -0.61099,0.63174 9.1e-4,0.0713 1.23412,1.61198 2.4466,3.05642 0.35256,0.42 1.06058,1.27823 1.57339,1.90718 0.5128,0.62894 1.28585,1.56867 1.71787,2.08829 0.432034,0.51961 0.786044,0.98409 0.786694,1.03216 7.1e-4,0.0481 -0.982174,0.0846 -2.184064,0.0813 l -2.18525,-0.006 -2.83937,-3.432 -2.83936,-3.43201 h -0.51136 -0.51135 v 3.43814 3.43812 h -1.86536 -1.86537 z m 21.474354,10.41358 c -0.77043,-0.24366 -1.17253,-0.50059 -1.67269,-1.0688 -0.99297,-1.12806 -1.18271,-2.27148 -1.18271,-7.12734 V 103.645 h -1.39855 -1.39856 v -0.9828 c 0,-0.83518 0.0306,-0.9919 0.20395,-1.04348 0.11218,-0.0333 0.57108,-0.14371 1.01979,-0.24517 1.78626,-0.40392 1.62444,-0.28546 1.79031,-1.31066 0.0805,-0.497723 0.23053,-1.390073 0.33332,-1.983003 l 0.1869,-1.07806 h 1.49617 1.49617 v 1.98129 1.981303 h 2.09784 2.09785 v 1.34029 1.34029 h -2.10887 -2.10886 l 0.0496,3.75863 c 0.0507,3.84354 0.10019,4.28026 0.54253,4.79081 0.29953,0.34572 0.91797,0.59783 2.19788,0.89599 l 1.19461,0.27828 v 1.02375 1.02375 l -2.18525,-0.008 c -1.41769,-0.005 -2.34899,-0.0596 -2.65144,-0.15523 z m 43.92025,-0.0877 c -1.16321,-0.39038 -1.82545,-1.0669 -2.32157,-2.37159 -0.20965,-0.55132 -0.22346,-1.06814 -0.25632,-9.58597 l -0.0347,-9.003231 h 1.86664 1.86664 l 0.0313,8.595321 c 0.0294,8.06952 0.0445,8.62163 0.24535,9.02554 0.30363,0.61047 0.64978,0.79773 2.23347,1.20832 l 1.39857,0.36259 0.0336,1.00987 0.0337,1.00986 -2.1898,-0.005 c -1.89498,-0.005 -2.28633,-0.0374 -2.90693,-0.2457 z"
       id="path346"
       sodipodi:nodetypes="ssssscscccccccccsssssscsssssssssssssssssssssssscccccsssscscsssssscsscssscccssssscccsssssscccssssssscccccccccssssssssssscccssscssssssscssssssscsssssccccccccssssssscsscccccccccccccssscscssscssscsccccccccccssscccssssscccccccccccssscccssssscccssscccsss" />
  </g>
</svg>
