<?xml version="1.0" encoding="UTF-8"?>
<svg width="103.03" height="18.222" version="1.1" viewBox="0 0 27.26 4.8213" xmlns="http://www.w3.org/2000/svg" xmlns:cc="http://creativecommons.org/ns#" xmlns:dc="http://purl.org/dc/elements/1.1/" xmlns:rdf="http://www.w3.org/1999/02/22-rdf-syntax-ns#">
 <metadata>
  <rdf:RDF>
   <cc:Work rdf:about="">
    <dc:format>image/svg+xml</dc:format>
    <dc:type rdf:resource="http://purl.org/dc/dcmitype/StillImage"/>
    <dc:title/>
   </cc:Work>
  </rdf:RDF>
 </metadata>
 <g transform="translate(-15.086 -37.426)">
  <g style="fill:#b2b2b2;font-variant-caps:normal;font-variant-east-asian:normal;font-variant-ligatures:normal;font-variant-numeric:normal;font-variation-settings:'wght' 600;shape-inside:url(#rect38);white-space:pre" aria-label="darktable">
   <g transform="matrix(.5924 0 0 .5924 6.1492 15.255)">
    <path d="m17.118 45.565q-0.66675 0-1.1218-0.28575-0.45508-0.29633-0.68792-0.92075-0.22225-0.635-0.22225-1.6404 0-1.0583 0.20108-1.7039 0.20108-0.65616 0.66675-0.9525 0.47625-0.30692 1.27-0.30692 0.42333 0 0.83608 0.08467 0.41275 0.08467 0.71966 0.20108v-2.6141h1.3123v8.0751h-1.0901l-0.22225-0.55033q-0.16933 0.15875-0.45508 0.29633-0.27517 0.13758-0.59266 0.23283-0.30692 0.08467-0.61383 0.08467zm0.4445-1.0583q0.381 0 0.68792-0.11642 0.30692-0.127 0.52916-0.254v-3.1538q-0.26458-0.09525-0.53975-0.16933-0.27516-0.07408-0.60325-0.07408-0.4445 0-0.71966 0.16933-0.27517 0.15875-0.40216 0.5715-0.11642 0.41275-0.11642 1.1747 0 0.70908 0.11642 1.1218 0.11642 0.40216 0.37042 0.5715 0.26458 0.15875 0.67733 0.15875z" style="fill:#b2b2b2;font-variant-caps:normal;font-variant-east-asian:normal;font-variant-ligatures:normal;font-variant-numeric:normal;font-variation-settings:'wght' 600"/>
    <path d="m22.579 45.565q-0.635 0-1.0372-0.381-0.40216-0.381-0.40216-1.0477v-0.47625q0-0.65616 0.4445-1.0689 0.45508-0.41275 1.3864-0.41275h1.6192v-0.49742q0-0.29633-0.10583-0.49742-0.10583-0.20108-0.381-0.29633-0.27516-0.10583-0.83608-0.10583h-1.7145v-0.762q0.39158-0.10583 0.92075-0.17992 0.52916-0.08467 1.2594-0.08467 0.6985-0.01058 1.1853 0.16933 0.48683 0.16933 0.73025 0.5715 0.254 0.40216 0.254 1.1007v3.9052h-1.0266l-0.22225-0.61383q-0.07408 0.0635-0.26458 0.16933-0.1905 0.10583-0.47625 0.23283-0.28575 0.11642-0.635 0.20108-0.33866 0.07408-0.6985 0.07408zm0.635-0.92075q0.13758 0 0.30692-0.03175 0.17992-0.04233 0.35983-0.08467 0.17992-0.05292 0.32808-0.09525 0.15875-0.05292 0.254-0.09525 0.10583-0.04233 0.127-0.05292v-1.4817l-1.2277 0.0635q-0.48683 0.04233-0.70908 0.254-0.21167 0.21167-0.21167 0.56092v0.23283q0 0.26458 0.10583 0.43392 0.11642 0.15875 0.28575 0.22225 0.17992 0.0635 0.381 0.07408z" style="fill:#b2b2b2;font-variant-caps:normal;font-variant-east-asian:normal;font-variant-ligatures:normal;font-variant-numeric:normal;font-variation-settings:'wght' 600"/>
    <path d="m27.204 45.501v-5.6726h1.016l0.29633 0.91016q0.33866-0.41275 0.75141-0.6985t0.98425-0.28575q0.11642 0 0.24342 0.02117 0.127 0.01058 0.23283 0.04233v1.3335q-0.14817-0.02117-0.3175-0.03175-0.16933-0.01058-0.32808-0.01058-0.32808 0-0.60325 0.07408-0.26458 0.07408-0.49742 0.23283-0.23283 0.14817-0.46566 0.381v3.7042z" style="fill:#b2b2b2;font-variant-caps:normal;font-variant-east-asian:normal;font-variant-ligatures:normal;font-variant-numeric:normal;font-variation-settings:'wght' 600"/>
    <path d="m31.639 45.501v-8.0751h1.3123v4.4767h0.71966l1.4182-2.0743h1.3441l-1.7992 2.667 1.9473 3.0057h-1.3441l-1.5875-2.4236h-0.6985v2.4236z" style="fill:#b2b2b2;font-variant-caps:normal;font-variant-east-asian:normal;font-variant-ligatures:normal;font-variant-numeric:normal;font-variation-settings:'wght' 600"/>
    <path d="m39.386 45.501q-0.61383 0-1.0054-0.17992-0.39158-0.1905-0.5715-0.62441-0.16933-0.43392-0.15875-1.143l0.04233-2.667h-0.889v-0.84666l0.93133-0.21167 0.1905-1.5875h1.0266v1.5875h1.4393v1.0583h-1.4393v2.6564q0 0.27517 0.05292 0.45508 0.05292 0.16933 0.14817 0.27517 0.10583 0.09525 0.22225 0.13758 0.11642 0.04233 0.24342 0.05292l0.70908 0.07408v0.96308z" style="fill:#b2b2b2;font-variant-caps:normal;font-variant-east-asian:normal;font-variant-ligatures:normal;font-variant-numeric:normal;font-variation-settings:'wght' 600"/>
    <path d="m42.529 45.565q-0.635 0-1.0372-0.381-0.40216-0.381-0.40216-1.0477v-0.47625q0-0.65616 0.4445-1.0689 0.45508-0.41275 1.3864-0.41275h1.6192v-0.49742q0-0.29633-0.10583-0.49742-0.10583-0.20108-0.381-0.29633-0.27517-0.10583-0.83608-0.10583h-1.7145v-0.762q0.39158-0.10583 0.92075-0.17992 0.52916-0.08467 1.2594-0.08467 0.6985-0.01058 1.1853 0.16933 0.48683 0.16933 0.73025 0.5715 0.254 0.40216 0.254 1.1007v3.9052h-1.0266l-0.22225-0.61383q-0.07408 0.0635-0.26458 0.16933-0.1905 0.10583-0.47625 0.23283-0.28575 0.11642-0.635 0.20108-0.33867 0.07408-0.6985 0.07408zm0.635-0.92075q0.13758 0 0.30692-0.03175 0.17992-0.04233 0.35983-0.08467 0.17992-0.05292 0.32808-0.09525 0.15875-0.05292 0.254-0.09525 0.10583-0.04233 0.127-0.05292v-1.4817l-1.2277 0.0635q-0.48683 0.04233-0.70908 0.254-0.21167 0.21167-0.21167 0.56092v0.23283q0 0.26458 0.10583 0.43392 0.11642 0.15875 0.28575 0.22225 0.17992 0.0635 0.381 0.07408z" style="fill:#b2b2b2;font-variant-caps:normal;font-variant-east-asian:normal;font-variant-ligatures:normal;font-variant-numeric:normal;font-variation-settings:'wght' 600"/>
    <path d="m50.202 45.565q-0.381 0-0.6985-0.08467-0.30692-0.09525-0.56092-0.23283-0.254-0.14817-0.47625-0.29633l-0.22225 0.55033h-1.0901v-8.0751h1.3123v2.8363q0.35983-0.20108 0.81491-0.34925 0.46566-0.15875 0.85725-0.15875 0.71966 0 1.1642 0.29633 0.4445 0.29633 0.64558 0.9525 0.21167 0.64558 0.21167 1.7145 0 0.93133-0.21167 1.5663-0.20108 0.635-0.635 0.96308-0.42333 0.3175-1.1112 0.3175zm-0.47625-1.0689q0.34925 0 0.59266-0.17992 0.254-0.17992 0.39158-0.58208 0.13758-0.40217 0.13758-1.0795 0-0.80433-0.14817-1.1959t-0.40216-0.51858q-0.254-0.127-0.5715-0.127-0.37042 0-0.67733 0.11642-0.30692 0.10583-0.58208 0.254v2.9633q0.24342 0.127 0.55033 0.24342 0.3175 0.10583 0.70908 0.10583z" style="fill:#b2b2b2;font-variant-caps:normal;font-variant-east-asian:normal;font-variant-ligatures:normal;font-variant-numeric:normal;font-variation-settings:'wght' 600"/>
    <path d="m55.007 45.523q-0.56092 0-0.94191-0.1905-0.37042-0.1905-0.56092-0.59266-0.17992-0.40216-0.17992-1.0689v-6.2441h1.3123v6.0642q0 0.381 0.07408 0.59266 0.08467 0.21167 0.23283 0.30692 0.14817 0.08467 0.35983 0.11642l0.47625 0.0635v0.9525z" style="fill:#b2b2b2;font-variant-caps:normal;font-variant-east-asian:normal;font-variant-ligatures:normal;font-variant-numeric:normal;font-variation-settings:'wght' 600"/>
    <path d="m58.88 45.554q-0.92075 0-1.4711-0.254-0.53975-0.254-0.78316-0.87841-0.24342-0.635-0.24342-1.7568 0-1.143 0.23283-1.7674 0.23283-0.635 0.77258-0.889t1.4605-0.254q0.81491 0 1.3017 0.16933 0.49742 0.15875 0.71966 0.58208 0.23283 0.41275 0.23283 1.1747 0 0.53975-0.21167 0.86783-0.21167 0.3175-0.61383 0.45508-0.39158 0.13758-0.93133 0.13758h-1.6616q0.02117 0.52916 0.13758 0.84666 0.127 0.30692 0.4445 0.4445 0.32808 0.13758 0.9525 0.13758h1.7145v0.77258q-0.43392 0.08467-0.92075 0.14817-0.47625 0.0635-1.1324 0.0635zm-1.2065-3.2067h1.5452q0.37042 0 0.53975-0.13758 0.17992-0.14817 0.17992-0.52916 0-0.37042-0.10583-0.58208t-0.34925-0.29633q-0.24342-0.09525-0.635-0.09525-0.4445 0-0.6985 0.13758t-0.37042 0.49742q-0.10583 0.34925-0.10583 1.0054z" style="fill:#b2b2b2;font-variant-caps:normal;font-variant-east-asian:normal;font-variant-ligatures:normal;font-variant-numeric:normal;font-variation-settings:'wght' 600"/>
   </g>
  </g>
 </g>
</svg>
