<?xml version="1.0" encoding="UTF-8" standalone="no"?>
<!-- Created with Inkscape (http://www.inkscape.org/) -->

<svg
   width="1000"
   height="1000"
   viewBox="0 0 264.58333 264.58333"
   version="1.1"
   id="svg1"
   sodipodi:docname="macos_install_background.svg"
   inkscape:version="1.3.2 (091e20e, 2023-11-25)"
   inkscape:export-filename="../../packaging/macosx/macos_install_background.png"
   inkscape:export-xdpi="96"
   inkscape:export-ydpi="96"
   xmlns:inkscape="http://www.inkscape.org/namespaces/inkscape"
   xmlns:sodipodi="http://sodipodi.sourceforge.net/DTD/sodipodi-0.dtd"
   xmlns:xlink="http://www.w3.org/1999/xlink"
   xmlns="http://www.w3.org/2000/svg"
   xmlns:svg="http://www.w3.org/2000/svg">
  <sodipodi:namedview
     id="namedview1"
     pagecolor="#ffffff"
     bordercolor="#000000"
     borderopacity="0.25"
     inkscape:showpageshadow="2"
     inkscape:pageopacity="0.0"
     inkscape:pagecheckerboard="0"
     inkscape:deskcolor="#d1d1d1"
     inkscape:document-units="mm"
     inkscape:zoom="0.77753094"
     inkscape:cx="504.16"
     inkscape:cy="454.00123"
     inkscape:window-width="1792"
     inkscape:window-height="1017"
     inkscape:window-x="0"
     inkscape:window-y="25"
     inkscape:window-maximized="0"
     inkscape:current-layer="layer1" />
  <defs
     id="defs1">
    <marker
       style="overflow:visible"
       id="ArrowWideHeavy"
       refX="0"
       refY="0"
       orient="auto-start-reverse"
       inkscape:stockid="Wide, heavy arrow"
       markerWidth="1"
       markerHeight="1"
       viewBox="0 0 1 1"
       inkscape:isstock="true"
       inkscape:collect="always"
       preserveAspectRatio="xMidYMid">
      <path
         style="fill:context-stroke;fill-rule:evenodd;stroke:none"
         d="m 1,0 -3,3 h -2 l 3,-3 -3,-3 h 2 z"
         id="path12" />
    </marker>
    <linearGradient
       id="linearGradient4163">
      <stop
         style="stop-color:#ff7004;stop-opacity:1;"
         offset="0"
         id="stop4165" />
      <stop
         style="stop-color:#ba4704;stop-opacity:1;"
         offset="1"
         id="stop4167" />
    </linearGradient>
    <linearGradient
       id="linearGradient4105">
      <stop
         style="stop-color:#f7f10e;stop-opacity:1;"
         offset="0"
         id="stop4107" />
      <stop
         style="stop-color:#c58907;stop-opacity:1;"
         offset="1"
         id="stop4109" />
    </linearGradient>
    <linearGradient
       id="linearGradient4123">
      <stop
         style="stop-color:#17b414;stop-opacity:1;"
         offset="0"
         id="stop4125" />
      <stop
         style="stop-color:#176314;stop-opacity:1;"
         offset="1"
         id="stop4127" />
    </linearGradient>
    <linearGradient
       id="linearGradient4133">
      <stop
         style="stop-color:#1476e6;stop-opacity:1;"
         offset="0"
         id="stop4135" />
      <stop
         style="stop-color:#143e9a;stop-opacity:1;"
         offset="1"
         id="stop4137" />
    </linearGradient>
    <linearGradient
       id="linearGradient4143">
      <stop
         style="stop-color:#d000d0;stop-opacity:1;"
         offset="0"
         id="stop4145" />
      <stop
         style="stop-color:#760076;stop-opacity:1;"
         offset="1"
         id="stop4147" />
    </linearGradient>
    <linearGradient
       id="linearGradient4153">
      <stop
         style="stop-color:#d70016;stop-opacity:1;"
         offset="0"
         id="stop4155" />
      <stop
         style="stop-color:#8d0016;stop-opacity:1;"
         offset="1"
         id="stop4157" />
    </linearGradient>
    <linearGradient
       id="linearGradient4206">
      <stop
         style="stop-color:#ffffff;stop-opacity:1;"
         offset="0"
         id="stop4208" />
      <stop
         style="stop-color:#b0b0b0;stop-opacity:1;"
         offset="1"
         id="stop4210" />
    </linearGradient>
    <filter
       inkscape:collect="always"
       id="filter4107-2"
       style="color-interpolation-filters:sRGB"
       x="-0.048000122"
       y="-0.048000122"
       width="1.0960002"
       height="1.0960002">
      <feGaussianBlur
         inkscape:collect="always"
         stdDeviation="9.0000227"
         id="feGaussianBlur4109-1" />
    </filter>
    <filter
       inkscape:collect="always"
       id="filter3902-1"
       x="-0.048"
       y="-0.048"
       width="1.096"
       height="1.096">
      <feGaussianBlur
         inkscape:collect="always"
         stdDeviation="9"
         id="feGaussianBlur3904-0" />
    </filter>
    <filter
       inkscape:collect="always"
       id="filter3999-1"
       x="-0.10182051"
       width="1.203641"
       y="-0.14085205"
       height="1.2817041">
      <feGaussianBlur
         inkscape:collect="always"
         stdDeviation="9.2672575"
         id="feGaussianBlur4001-8" />
    </filter>
    <filter
       inkscape:collect="always"
       id="filter4245-7"
       x="-0.12561548"
       width="1.251231"
       y="-0.11054609"
       height="1.2210922">
      <feGaussianBlur
         inkscape:collect="always"
         stdDeviation="9.2910855"
         id="feGaussianBlur4247-6" />
    </filter>
    <filter
       inkscape:collect="always"
       id="filter4007"
       x="-0.1193153"
       width="1.2386306"
       y="-0.10704988"
       height="1.2140998">
      <feGaussianBlur
         inkscape:collect="always"
         stdDeviation="9.2672575"
         id="feGaussianBlur4009" />
    </filter>
    <filter
       inkscape:collect="always"
       id="filter4011-0"
       x="-0.10182052"
       width="1.203641"
       y="-0.14085205"
       height="1.2817041">
      <feGaussianBlur
         inkscape:collect="always"
         stdDeviation="9.2672575"
         id="feGaussianBlur4013-0" />
    </filter>
    <filter
       inkscape:collect="always"
       id="filter4015-9"
       x="-0.12529333"
       width="1.2505867"
       y="-0.11026258"
       height="1.2205252">
      <feGaussianBlur
         inkscape:collect="always"
         stdDeviation="9.2672575"
         id="feGaussianBlur4017-5" />
    </filter>
    <filter
       inkscape:collect="always"
       id="filter4257-6"
       x="-0.1176"
       width="1.2352"
       y="-0.1176"
       height="1.2352">
      <feGaussianBlur
         inkscape:collect="always"
         stdDeviation="3.136"
         id="feGaussianBlur4259-2" />
    </filter>
    <linearGradient
       inkscape:collect="always"
       xlink:href="#linearGradient4163"
       id="linearGradient3885-8"
       gradientUnits="userSpaceOnUse"
       x1="372.85916"
       y1="593.388"
       x2="318.29666"
       y2="726.388"
       gradientTransform="matrix(0.02051034,0,0,0.02051034,106.06014,57.100904)" />
    <linearGradient
       inkscape:collect="always"
       xlink:href="#linearGradient4105"
       id="linearGradient3907-4"
       gradientUnits="userSpaceOnUse"
       gradientTransform="matrix(0.01025517,0.01776247,-0.01776247,0.01025517,122.69444,60.686207)"
       x1="277.62738"
       y1="637.05853"
       x2="454.04785"
       y2="683.48932" />
    <linearGradient
       inkscape:collect="always"
       xlink:href="#linearGradient4123"
       id="linearGradient3911-0"
       gradientUnits="userSpaceOnUse"
       gradientTransform="matrix(-0.01025517,0.01776247,-0.01776247,-0.01025517,127.90662,76.884572)"
       x1="253.83762"
       y1="725.2688"
       x2="401.18628"
       y2="612.48419" />
    <linearGradient
       inkscape:collect="always"
       xlink:href="#linearGradient4133"
       id="linearGradient3915-3"
       gradientUnits="userSpaceOnUse"
       gradientTransform="matrix(-0.02051034,0,0,-0.02051034,116.48451,89.497643)"
       x1="326.12479"
       y1="701.76617"
       x2="342.12479"
       y2="581.76617" />
    <linearGradient
       inkscape:collect="always"
       xlink:href="#linearGradient4143"
       id="linearGradient3919-0"
       gradientUnits="userSpaceOnUse"
       gradientTransform="matrix(-0.01025517,-0.01776247,0.01776247,-0.01025517,99.850221,85.912341)"
       x1="456.97604"
       y1="694.41754"
       x2="273.62738"
       y2="643.98676" />
    <linearGradient
       inkscape:collect="always"
       xlink:href="#linearGradient4153"
       id="linearGradient3923-0"
       gradientUnits="userSpaceOnUse"
       gradientTransform="matrix(0.01025517,-0.01776247,0.01776247,0.01025517,94.638037,69.713973)"
       x1="432.1145"
       y1="650.05341"
       x2="263.69403"
       y2="710.34058" />
    <linearGradient
       inkscape:collect="always"
       xlink:href="#linearGradient4206"
       id="linearGradient4212-4"
       x1="256"
       y1="224"
       x2="256"
       y2="288"
       gradientUnits="userSpaceOnUse"
       gradientTransform="matrix(0.02051034,0,0,0.02051034,106.02168,68.048627)" />
    <filter
       inkscape:collect="always"
       id="filter4312-3"
       x="-0.061644902"
       y="-0.086536355"
       width="1.1232898"
       height="1.1730727">
      <feGaussianBlur
         inkscape:collect="always"
         stdDeviation="4.8192188"
         id="feGaussianBlur4314-8" />
    </filter>
    <filter
       inkscape:collect="always"
       id="filter4320-4"
       x="-0.077740588"
       y="-0.067048922"
       width="1.1554812"
       height="1.1340978">
      <feGaussianBlur
         inkscape:collect="always"
         stdDeviation="4.8252523"
         id="feGaussianBlur4322-0" />
    </filter>
    <filter
       inkscape:collect="always"
       id="filter4336-0"
       x="-0.076450397"
       y="-0.068039246"
       width="1.1529008"
       height="1.1360785">
      <feGaussianBlur
         inkscape:collect="always"
         stdDeviation="5.056875"
         id="feGaussianBlur4338-9" />
    </filter>
    <filter
       inkscape:collect="always"
       id="filter4344-3"
       x="-0.061619304"
       y="-0.086586864"
       width="1.1232386"
       height="1.1731737">
      <feGaussianBlur
         inkscape:collect="always"
         stdDeviation="4.8220313"
         id="feGaussianBlur4346-7" />
    </filter>
    <filter
       inkscape:collect="always"
       id="filter4308-5"
       x="-0.077797935"
       y="-0.067006324"
       width="1.1555959"
       height="1.1340126">
      <feGaussianBlur
         inkscape:collect="always"
         stdDeviation="4.8309114"
         id="feGaussianBlur4310-7" />
    </filter>
    <filter
       inkscape:collect="always"
       id="filter4328-2"
       x="-0.076442436"
       y="-0.068045553"
       width="1.1528849"
       height="1.1360911">
      <feGaussianBlur
         inkscape:collect="always"
         stdDeviation="5.0573438"
         id="feGaussianBlur4330-9" />
    </filter>
    <filter
       inkscape:collect="always"
       id="filter4348"
       x="-0.095774835"
       y="-0.096226235"
       width="1.1915497"
       height="1.1924525">
      <feGaussianBlur
         inkscape:collect="always"
         stdDeviation="1.7582689"
         id="feGaussianBlur4350" />
    </filter>
  </defs>
  <g
     inkscape:label="Ebene 1"
     inkscape:groupmode="layer"
     id="layer1">
    <rect
       style="fill:#6a6a6a;fill-opacity:1;stroke:none;stroke-width:0;stroke-dasharray:none;stroke-opacity:1;marker-end:url(#ArrowWideHeavy)"
       id="rect1"
       width="264.58334"
       height="264.58334"
       x="0"
       y="0"
       inkscape:export-filename="src/darktable/packaging/macosx/install_background.png"
       inkscape:export-xdpi="96"
       inkscape:export-ydpi="96" />
    <g
       id="icons"
       stroke="none"
       stroke-width="1"
       fill="none"
       fill-rule="evenodd"
       transform="matrix(0.56030638,0,0,0.56030638,77.989663,46.804144)"
       style="fill:#b2b2b2;fill-opacity:1">
      <g
         id="ui-gambling-website-lined-icnos-casinoshunter"
         transform="translate(-1511,-158)"
         fill="#1c1c1f"
         fill-rule="nonzero"
         style="fill:#b2b2b2;fill-opacity:1">
        <g
           id="1"
           transform="translate(1350,120)"
           style="fill:#b2b2b2;fill-opacity:1">
          <path
             d="m 187.81214,38.580211 10.51308,10.42406 0.0879,0.08157 c 0.35176,0.348815 0.55642,0.808848 0.58688,1.352381 l -0.002,0.18272 c -0.0255,0.430549 -0.19006,0.84187 -0.51431,1.210455 l -0.12268,0.126623 -10.54912,10.461768 c -0.78015,0.773615 -2.04157,0.773615 -2.82172,0 -0.78482,-0.778241 -0.78482,-2.043532 -6e-5,-2.82171 l 7.2839,-7.22417 -29.27479,7.2e-4 c -1.1024,0 -1.99947,-0.889553 -1.99947,-1.991097 0,-1.101545 0.89707,-1.991098 1.99944,-1.991098 l 29.03976,-7.19e-4 -7.04878,-6.989731 c -0.78482,-0.778241 -0.78482,-2.043532 0,-2.821773 0.78015,-0.773615 2.04157,-0.773615 2.82172,0 z"
             id="right-arrow"
             style="fill:#b2b2b2;fill-opacity:1" />
        </g>
      </g>
    </g>
    <g
       id="g2"
       transform="matrix(1.649183,0,0,1.649183,-166.25116,-106.00178)"
       style="stroke-width:1.15768;stroke-dasharray:none">
      <path
         sodipodi:type="arc"
         style="display:inline;opacity:0.95;fill:#1a1a1a;fill-opacity:1;stroke:none;stroke-width:59.0689;stroke-dasharray:none;filter:url(#filter4107-2)"
         id="path3947-6"
         sodipodi:cx="285"
         sodipodi:cy="287"
         sodipodi:rx="225"
         sodipodi:ry="225"
         d="M 510,287 A 225,225 0 0 1 288.48211,511.97305 225,225 0 0 1 60.107778,293.96338 225,225 0 0 1 274.55701,62.242477 225,225 0 0 1 509.56899,273.07991"
         transform="matrix(0.01959876,0,0,0.01959876,105.66617,67.69494)"
         sodipodi:start="0"
         sodipodi:end="6.2212787"
         sodipodi:open="true"
         sodipodi:arc-type="arc" />
      <path
         sodipodi:type="arc"
         style="display:inline;opacity:0.95;fill:#1a1a1a;fill-opacity:1;stroke:none;stroke-width:59.0689;stroke-dasharray:none;filter:url(#filter3902-1)"
         id="path3892-5"
         sodipodi:cx="285"
         sodipodi:cy="287"
         sodipodi:rx="225"
         sodipodi:ry="225"
         d="M 510,287 A 225,225 0 0 1 288.48211,511.97305 225,225 0 0 1 60.107778,293.96338 225,225 0 0 1 274.55701,62.242477 225,225 0 0 1 509.56899,273.07991"
         transform="matrix(0.01959876,0,0,0.01959876,105.66617,67.69494)"
         sodipodi:start="0"
         sodipodi:end="6.2212787"
         sodipodi:open="true"
         sodipodi:arc-type="arc" />
      <path
         sodipodi:open="true"
         sodipodi:end="6.2212787"
         sodipodi:start="0"
         d="m 115.66155,73.319786 a 4.4097219,4.4097219 0 0 1 -4.34148,4.409194 4.4097219,4.4097219 0 0 1 -4.47586,-4.27272 4.4097219,4.4097219 0 0 1 4.20294,-4.541444 4.4097219,4.4097219 0 0 1 4.60595,4.132153"
         sodipodi:ry="4.4097219"
         sodipodi:rx="4.4097219"
         sodipodi:cy="73.319786"
         sodipodi:cx="111.25182"
         id="path3021-3"
         style="display:inline;opacity:0.95;fill:#1a1a1a;fill-opacity:1;stroke:none;stroke-width:1.15768;stroke-dasharray:none"
         sodipodi:type="arc"
         sodipodi:arc-type="arc" />
      <path
         inkscape:transform-center-y="-11.192108"
         inkscape:transform-center-x="-7.8258247"
         inkscape:connector-curvature="0"
         id="path3951-0"
         d="m 303.20313,32.6687 -55.46875,157.90625 218.4375,-36.75 C 433.81752,91.69016 374.21313,46.03153 303.20313,32.6687 Z"
         style="display:inline;fill:#000000;fill-opacity:1;fill-rule:nonzero;stroke:none;stroke-width:56.4436;stroke-dasharray:none;filter:url(#filter3999-1)"
         transform="matrix(0.02051034,0,0,0.02051034,106.02168,68.048627)" />
      <path
         style="display:inline;fill:#000000;fill-opacity:1;fill-rule:nonzero;stroke:none;stroke-width:56.4436;stroke-dasharray:none;filter:url(#filter4245-7)"
         d="m 473.01214,185.21346 -164.4852,30.91578 141.04518,170.79742 c 37.63313,-59.08709 47.37247,-133.53532 23.44002,-201.7132 z"
         id="path3953-4"
         inkscape:connector-curvature="0"
         inkscape:transform-center-x="-10.952274"
         inkscape:transform-center-y="2.3310107"
         transform="matrix(0.02051034,0,0,0.02051034,106.02168,68.048627)" />
      <path
         inkscape:transform-center-y="10.033929"
         inkscape:transform-center-x="-5.9383436"
         inkscape:connector-curvature="0"
         id="path3955"
         d="M 425.80901,408.54475 316.79256,281.55428 239.40024,489.1017 c 69.98749,3.0477 139.33122,-25.7419 186.40877,-80.55695 z"
         style="display:inline;fill:#000000;fill-opacity:1;fill-rule:nonzero;stroke:none;stroke-width:56.4436;stroke-dasharray:none;filter:url(#filter4007)"
         transform="matrix(0.02051034,0,0,0.02051034,106.02168,68.048627)" />
      <path
         style="display:inline;fill:#000000;fill-opacity:1;fill-rule:nonzero;stroke:none;stroke-width:56.4436;stroke-dasharray:none;filter:url(#filter4011-0)"
         d="M 208.79687,479.33129 264.26562,321.42504 45.828123,358.17503 c 32.354359,62.1348 91.958747,107.79343 162.968747,121.15626 z"
         id="path3957-8"
         inkscape:connector-curvature="0"
         inkscape:transform-center-x="7.8258235"
         inkscape:transform-center-y="11.192104"
         transform="matrix(0.02051034,0,0,0.02051034,106.02168,68.048627)" />
      <path
         inkscape:transform-center-y="-2.3310149"
         inkscape:transform-center-x="10.952273"
         inkscape:connector-curvature="0"
         id="path3959-5"
         d="M 38.987861,326.78653 203.47306,295.87075 62.427886,125.07333 C 24.794751,184.16042 15.055411,258.60865 38.987861,326.78653 Z"
         style="display:inline;fill:#000000;fill-opacity:1;fill-rule:nonzero;stroke:none;stroke-width:56.4436;stroke-dasharray:none;filter:url(#filter4015-9)"
         transform="matrix(0.02051034,0,0,0.02051034,106.02168,68.048627)" />
      <circle
         id="path4249-5"
         style="display:inline;fill:#000000;fill-opacity:1;stroke:none;stroke-width:56.4436;stroke-dasharray:none;filter:url(#filter4257-6)"
         cx="256"
         cy="256"
         r="32"
         transform="matrix(0.02051034,0,0,0.02051034,106.02168,68.048627)" />
      <path
         style="display:inline;fill:url(#linearGradient3885-8);fill-opacity:1;fill-rule:nonzero;stroke:none;stroke-width:1.15768;stroke-dasharray:none"
         d="m 112.24048,68.718674 -1.13768,3.238711 4.48022,-0.753758 c -0.66359,-1.274403 -1.8861,-2.210877 -3.34254,-2.484953 z"
         id="path3902-5"
         inkscape:connector-curvature="0"
         inkscape:transform-center-x="-7.8258233"
         inkscape:transform-center-y="-11.192103" />
      <path
         inkscape:transform-center-y="2.331012"
         inkscape:transform-center-x="-10.952273"
         inkscape:connector-curvature="0"
         id="path3905-4"
         d="m 115.72332,71.847419 -3.37365,0.634093 2.89289,3.503109 c 0.77187,-1.211895 0.97162,-2.738853 0.48076,-4.137202 z"
         style="display:inline;fill:url(#linearGradient3907-4);fill-opacity:1;fill-rule:nonzero;stroke:none;stroke-width:1.15768;stroke-dasharray:none" />
      <path
         style="display:inline;fill:url(#linearGradient3911-0);fill-opacity:1;fill-rule:nonzero;stroke:none;stroke-width:1.15768;stroke-dasharray:none"
         d="m 114.75517,76.428018 -2.23597,-2.604619 -1.58734,4.256868 c 1.43547,0.06251 2.85773,-0.527974 3.82331,-1.652249 z"
         id="path3909-2"
         inkscape:connector-curvature="0"
         inkscape:transform-center-x="-5.9383428"
         inkscape:transform-center-y="10.033928" />
      <path
         inkscape:transform-center-y="11.192107"
         inkscape:transform-center-x="7.8258237"
         inkscape:connector-curvature="0"
         id="path3913-1"
         d="m 110.30418,77.879871 1.13768,-3.238706 -4.48023,0.753753 c 0.6636,1.274405 1.88611,2.210879 3.34255,2.484953 z"
         style="display:inline;fill:url(#linearGradient3915-3);fill-opacity:1;fill-rule:nonzero;stroke:none;stroke-width:1.15768;stroke-dasharray:none" />
      <path
         style="display:inline;fill:url(#linearGradient3919-0);fill-opacity:1;fill-rule:nonzero;stroke:none;stroke-width:1.15768;stroke-dasharray:none"
         d="m 106.82134,74.751128 3.37364,-0.634092 -2.89288,-3.503112 c -0.77187,1.211894 -0.97163,2.738852 -0.48076,4.137204 z"
         id="path3917-9"
         inkscape:connector-curvature="0"
         inkscape:transform-center-x="10.952273"
         inkscape:transform-center-y="-2.331013" />
      <path
         inkscape:transform-center-y="-10.033934"
         inkscape:transform-center-x="5.9383427"
         inkscape:connector-curvature="0"
         id="path3921-2"
         d="m 107.78949,70.17053 2.23596,2.604616 1.58735,-4.256868 c -1.43547,-0.06251 -2.85773,0.527976 -3.82331,1.652252 z"
         style="display:inline;fill:url(#linearGradient3923-0);fill-opacity:1;fill-rule:nonzero;stroke:none;stroke-width:1.15768;stroke-dasharray:none" />
      <circle
         style="display:inline;fill:url(#linearGradient4212-4);fill-opacity:1;stroke:none;stroke-width:1.15768;stroke-dasharray:none"
         id="path4204-4"
         cx="111.27233"
         cy="73.299271"
         r="0.65633076" />
      <path
         style="display:inline;opacity:0.15;fill:#ffffff;fill-opacity:1;fill-rule:nonzero;stroke:none;stroke-width:56.4436;stroke-dasharray:none;filter:url(#filter4312-3)"
         d="m 262.75,177.90625 c 62.52323,-10.73321 125.19451,-20.60368 187.625,-31.875 C 419.71999,95.155323 367.86385,57.206218 309.65625,44.25 294.02083,88.802083 278.38542,133.35417 262.75,177.90625 Z"
         id="path4023-5"
         inkscape:connector-curvature="0"
         transform="matrix(0.02051034,0,0,0.02051034,106.02168,68.048627)" />
      <path
         style="display:inline;opacity:0.25;fill:#ffffff;fill-opacity:1;fill-rule:nonzero;stroke:none;stroke-width:56.4436;stroke-dasharray:none;filter:url(#filter4320-4)"
         d="m 327.03125,222.84375 c 40.52329,48.7881 80.41434,98.10187 121.40625,146.5 28.72085,-51.924 35.59327,-115.91001 17.78125,-172.71875 -46.39583,8.73958 -92.79167,17.47917 -139.1875,26.21875 z"
         id="path4025-8"
         inkscape:connector-curvature="0"
         transform="matrix(0.02051034,0,0,0.02051034,106.02168,68.048627)" />
      <path
         style="display:inline;opacity:0.15;fill:#ffffff;fill-opacity:1;fill-rule:nonzero;stroke:none;stroke-width:56.4436;stroke-dasharray:none;filter:url(#filter4336-0)"
         d="m 253.6875,479.3125 c 59.78567,-1.05071 118.43027,-27.00522 158.75,-70.875 -30.73958,-35.83333 -61.47917,-71.66667 -92.21875,-107.5 -22.17708,59.45833 -44.35417,118.91667 -66.53125,178.375 z"
         id="path4027-6"
         inkscape:connector-curvature="0"
         transform="matrix(0.02051034,0,0,0.02051034,106.02168,68.048627)" />
      <path
         style="display:inline;opacity:0.15;fill:#ffffff;fill-opacity:1;fill-rule:nonzero;stroke:none;stroke-width:56.4436;stroke-dasharray:none;filter:url(#filter4344-3)"
         d="M 61.4375,365.6875 C 92.010813,416.62413 143.95272,454.72618 202.34375,467.75 217.97917,423.19792 233.61458,378.64583 249.25,334.09375 186.64583,344.625 124.04167,355.15625 61.4375,365.6875 Z"
         id="path4029-2"
         inkscape:connector-curvature="0"
         transform="matrix(0.02051034,0,0,0.02051034,106.02168,68.048627)" />
      <path
         style="display:inline;opacity:0.25;fill:#ffffff;fill-opacity:1;fill-rule:nonzero;stroke:none;stroke-width:56.4436;stroke-dasharray:none;filter:url(#filter4308-5)"
         d="M 63.25,143.21875 C 34.736871,195.07118 28.061243,258.83927 45.78125,315.375 c 46.416667,-8.73958 92.83333,-17.47917 139.25,-26.21875 -40.4375,-48.9375 -80.875,-97.875 -121.3125,-146.8125 z"
         id="path4031-5"
         inkscape:connector-curvature="0"
         transform="matrix(0.02051034,0,0,0.02051034,106.02168,68.048627)" />
      <path
         style="display:inline;opacity:0.15;fill:#ffffff;fill-opacity:1;fill-rule:nonzero;stroke:none;stroke-width:56.4436;stroke-dasharray:none;filter:url(#filter4328-2)"
         d="m 257.71875,32.71875 c -59.39755,1.052231 -117.93041,27.160989 -158.1875,70.8125 30.75,35.84375 61.5,71.6875 92.25,107.53125 22.17708,-59.45833 44.35417,-118.916667 66.53125,-178.375 z"
         id="path4033-1"
         inkscape:connector-curvature="0"
         transform="matrix(0.02051034,0,0,0.02051034,106.02168,68.048627)" />
      <path
         style="display:inline;opacity:0.15;fill:#ffffff;fill-opacity:1;stroke:none;stroke-width:56.4436;stroke-dasharray:none;filter:url(#filter4348)"
         d="m 254.78125,234.03125 c -17.8789,-0.18647 -28.23464,25.62892 -14.5625,37.5 10.37034,10.67035 31.40662,7.50652 36.21875,-7.15625 5.24155,-12.60382 -3.31381,-29.03594 -17.28125,-30.15625 -1.45106,-0.20321 -2.91063,-0.2824 -4.375,-0.1875 z"
         id="path4214-3"
         inkscape:connector-curvature="0"
         transform="matrix(0.02051034,0,0,0.02051034,106.02168,68.048627)" />
    </g>
    <g
       style="font-variant-ligatures:normal;font-variant-caps:normal;font-variant-numeric:normal;font-variant-east-asian:normal;font-variation-settings:'wght' 600;white-space:pre;shape-inside:url(#rect38);fill:#b2b2b2;stroke-width:1.15768;stroke-dasharray:none"
       aria-label="darktable"
       id="g10"
       transform="matrix(1.6491616,0,0,1.6491616,3.2462394,-50.646418)">
      <g
         transform="matrix(0.5924,0,0,0.5924,6.1492,15.255)"
         id="g9"
         style="stroke-width:1.95422;stroke-dasharray:none">
        <path
           d="m 17.118,45.565 q -0.66675,0 -1.1218,-0.28575 -0.45508,-0.29633 -0.68792,-0.92075 -0.22225,-0.635 -0.22225,-1.6404 0,-1.0583 0.20108,-1.7039 0.20108,-0.65616 0.66675,-0.9525 0.47625,-0.30692 1.27,-0.30692 0.42333,0 0.83608,0.08467 0.41275,0.08467 0.71966,0.20108 v -2.6141 h 1.3123 v 8.0751 H 19.0018 L 18.77955,44.9512 q -0.16933,0.15875 -0.45508,0.29633 -0.27517,0.13758 -0.59266,0.23283 -0.30692,0.08467 -0.61383,0.08467 z m 0.4445,-1.0583 q 0.381,0 0.68792,-0.11642 0.30692,-0.127 0.52916,-0.254 v -3.1538 q -0.26458,-0.09525 -0.53975,-0.16933 -0.27516,-0.07408 -0.60325,-0.07408 -0.4445,0 -0.71966,0.16933 -0.27517,0.15875 -0.40216,0.5715 -0.11642,0.41275 -0.11642,1.1747 0,0.70908 0.11642,1.1218 0.11642,0.40216 0.37042,0.5715 0.26458,0.15875 0.67733,0.15875 z"
           style="font-variant-ligatures:normal;font-variant-caps:normal;font-variant-numeric:normal;font-variant-east-asian:normal;font-variation-settings:'wght' 600;fill:#b2b2b2;stroke-width:1.95422;stroke-dasharray:none"
           id="path1" />
        <path
           d="m 22.579,45.565 q -0.635,0 -1.0372,-0.381 -0.40216,-0.381 -0.40216,-1.0477 v -0.47625 q 0,-0.65616 0.4445,-1.0689 0.45508,-0.41275 1.3864,-0.41275 h 1.6192 v -0.49742 q 0,-0.29633 -0.10583,-0.49742 -0.10583,-0.20108 -0.381,-0.29633 -0.27516,-0.10583 -0.83608,-0.10583 h -1.7145 v -0.762 q 0.39158,-0.10583 0.92075,-0.17992 0.52916,-0.08467 1.2594,-0.08467 0.6985,-0.01058 1.1853,0.16933 0.48683,0.16933 0.73025,0.5715 0.254,0.40216 0.254,1.1007 v 3.9052 h -1.0266 l -0.22225,-0.61383 q -0.07408,0.0635 -0.26458,0.16933 -0.1905,0.10583 -0.47625,0.23283 -0.28575,0.11642 -0.635,0.20108 -0.33866,0.07408 -0.6985,0.07408 z m 0.635,-0.92075 q 0.13758,0 0.30692,-0.03175 0.17992,-0.04233 0.35983,-0.08467 0.17992,-0.05292 0.32808,-0.09525 0.15875,-0.05292 0.254,-0.09525 0.10583,-0.04233 0.127,-0.05292 v -1.4817 l -1.2277,0.0635 q -0.48683,0.04233 -0.70908,0.254 -0.21167,0.21167 -0.21167,0.56092 v 0.23283 q 0,0.26458 0.10583,0.43392 0.11642,0.15875 0.28575,0.22225 0.17992,0.0635 0.381,0.07408 z"
           style="font-variant-ligatures:normal;font-variant-caps:normal;font-variant-numeric:normal;font-variant-east-asian:normal;font-variation-settings:'wght' 600;fill:#b2b2b2;stroke-width:1.95422;stroke-dasharray:none"
           id="path2" />
        <path
           d="m 27.204,45.501 v -5.6726 h 1.016 l 0.29633,0.91016 q 0.33866,-0.41275 0.75141,-0.6985 0.41275,-0.28575 0.98425,-0.28575 0.11642,0 0.24342,0.02117 0.127,0.01058 0.23283,0.04233 v 1.3335 q -0.14817,-0.02117 -0.3175,-0.03175 -0.16933,-0.01058 -0.32808,-0.01058 -0.32808,0 -0.60325,0.07408 -0.26458,0.07408 -0.49742,0.23283 -0.23283,0.14817 -0.46566,0.381 v 3.7042 z"
           style="font-variant-ligatures:normal;font-variant-caps:normal;font-variant-numeric:normal;font-variant-east-asian:normal;font-variation-settings:'wght' 600;fill:#b2b2b2;stroke-width:1.95422;stroke-dasharray:none"
           id="path3" />
        <path
           d="m 31.639,45.501 v -8.0751 h 1.3123 v 4.4767 h 0.71966 l 1.4182,-2.0743 h 1.3441 l -1.7992,2.667 1.9473,3.0057 h -1.3441 l -1.5875,-2.4236 h -0.6985 v 2.4236 z"
           style="font-variant-ligatures:normal;font-variant-caps:normal;font-variant-numeric:normal;font-variant-east-asian:normal;font-variation-settings:'wght' 600;fill:#b2b2b2;stroke-width:1.95422;stroke-dasharray:none"
           id="path4" />
        <path
           d="m 39.386,45.501 q -0.61383,0 -1.0054,-0.17992 -0.39158,-0.1905 -0.5715,-0.62441 -0.16933,-0.43392 -0.15875,-1.143 l 0.04233,-2.667 h -0.889 v -0.84666 l 0.93133,-0.21167 0.1905,-1.5875 h 1.0266 v 1.5875 h 1.4393 v 1.0583 h -1.4393 v 2.6564 q 0,0.27517 0.05292,0.45508 0.05292,0.16933 0.14817,0.27517 0.10583,0.09525 0.22225,0.13758 0.11642,0.04233 0.24342,0.05292 l 0.70908,0.07408 v 0.96308 z"
           style="font-variant-ligatures:normal;font-variant-caps:normal;font-variant-numeric:normal;font-variant-east-asian:normal;font-variation-settings:'wght' 600;fill:#b2b2b2;stroke-width:1.95422;stroke-dasharray:none"
           id="path5" />
        <path
           d="m 42.529,45.565 q -0.635,0 -1.0372,-0.381 -0.40216,-0.381 -0.40216,-1.0477 v -0.47625 q 0,-0.65616 0.4445,-1.0689 0.45508,-0.41275 1.3864,-0.41275 h 1.6192 v -0.49742 q 0,-0.29633 -0.10583,-0.49742 -0.10583,-0.20108 -0.381,-0.29633 -0.27517,-0.10583 -0.83608,-0.10583 h -1.7145 v -0.762 q 0.39158,-0.10583 0.92075,-0.17992 0.52916,-0.08467 1.2594,-0.08467 0.6985,-0.01058 1.1853,0.16933 0.48683,0.16933 0.73025,0.5715 0.254,0.40216 0.254,1.1007 v 3.9052 h -1.0266 l -0.22225,-0.61383 q -0.07408,0.0635 -0.26458,0.16933 -0.1905,0.10583 -0.47625,0.23283 -0.28575,0.11642 -0.635,0.20108 -0.33867,0.07408 -0.6985,0.07408 z m 0.635,-0.92075 q 0.13758,0 0.30692,-0.03175 0.17992,-0.04233 0.35983,-0.08467 0.17992,-0.05292 0.32808,-0.09525 0.15875,-0.05292 0.254,-0.09525 0.10583,-0.04233 0.127,-0.05292 v -1.4817 l -1.2277,0.0635 q -0.48683,0.04233 -0.70908,0.254 -0.21167,0.21167 -0.21167,0.56092 v 0.23283 q 0,0.26458 0.10583,0.43392 0.11642,0.15875 0.28575,0.22225 0.17992,0.0635 0.381,0.07408 z"
           style="font-variant-ligatures:normal;font-variant-caps:normal;font-variant-numeric:normal;font-variant-east-asian:normal;font-variation-settings:'wght' 600;fill:#b2b2b2;stroke-width:1.95422;stroke-dasharray:none"
           id="path6" />
        <path
           d="m 50.202,45.565 q -0.381,0 -0.6985,-0.08467 -0.30692,-0.09525 -0.56092,-0.23283 -0.254,-0.14817 -0.47625,-0.29633 l -0.22225,0.55033 h -1.0901 v -8.0751 h 1.3123 v 2.8363 q 0.35983,-0.20108 0.81491,-0.34925 0.46566,-0.15875 0.85725,-0.15875 0.71966,0 1.1642,0.29633 0.4445,0.29633 0.64558,0.9525 0.21167,0.64558 0.21167,1.7145 0,0.93133 -0.21167,1.5663 -0.20108,0.635 -0.635,0.96308 -0.42333,0.3175 -1.1112,0.3175 z m -0.47625,-1.0689 q 0.34925,0 0.59266,-0.17992 0.254,-0.17992 0.39158,-0.58208 0.13758,-0.40217 0.13758,-1.0795 0,-0.80433 -0.14817,-1.1959 -0.14817,-0.39157 -0.40216,-0.51858 -0.254,-0.127 -0.5715,-0.127 -0.37042,0 -0.67733,0.11642 -0.30692,0.10583 -0.58208,0.254 v 2.9633 q 0.24342,0.127 0.55033,0.24342 0.3175,0.10583 0.70908,0.10583 z"
           style="font-variant-ligatures:normal;font-variant-caps:normal;font-variant-numeric:normal;font-variant-east-asian:normal;font-variation-settings:'wght' 600;fill:#b2b2b2;stroke-width:1.95422;stroke-dasharray:none"
           id="path7" />
        <path
           d="m 55.007,45.523 q -0.56092,0 -0.94191,-0.1905 -0.37042,-0.1905 -0.56092,-0.59266 -0.17992,-0.40216 -0.17992,-1.0689 v -6.2441 h 1.3123 v 6.0642 q 0,0.381 0.07408,0.59266 0.08467,0.21167 0.23283,0.30692 0.14817,0.08467 0.35983,0.11642 l 0.47625,0.0635 v 0.9525 z"
           style="font-variant-ligatures:normal;font-variant-caps:normal;font-variant-numeric:normal;font-variant-east-asian:normal;font-variation-settings:'wght' 600;fill:#b2b2b2;stroke-width:1.95422;stroke-dasharray:none"
           id="path8" />
        <path
           d="m 58.88,45.554 q -0.92075,0 -1.4711,-0.254 -0.53975,-0.254 -0.78316,-0.87841 -0.24342,-0.635 -0.24342,-1.7568 0,-1.143 0.23283,-1.7674 0.23283,-0.635 0.77258,-0.889 0.53975,-0.254 1.4605,-0.254 0.81491,0 1.3017,0.16933 0.49742,0.15875 0.71966,0.58208 0.23283,0.41275 0.23283,1.1747 0,0.53975 -0.21167,0.86783 -0.21167,0.3175 -0.61383,0.45508 -0.39158,0.13758 -0.93133,0.13758 h -1.6616 q 0.02117,0.52916 0.13758,0.84666 0.127,0.30692 0.4445,0.4445 0.32808,0.13758 0.9525,0.13758 h 1.7145 v 0.77258 q -0.43392,0.08467 -0.92075,0.14817 -0.47625,0.0635 -1.1324,0.0635 z m -1.2065,-3.2067 h 1.5452 q 0.37042,0 0.53975,-0.13758 0.17992,-0.14817 0.17992,-0.52916 0,-0.37042 -0.10583,-0.58208 -0.10583,-0.21166 -0.34925,-0.29633 -0.24342,-0.09525 -0.635,-0.09525 -0.4445,0 -0.6985,0.13758 -0.254,0.13758 -0.37042,0.49742 -0.10583,0.34925 -0.10583,1.0054 z"
           style="font-variant-ligatures:normal;font-variant-caps:normal;font-variant-numeric:normal;font-variant-east-asian:normal;font-variation-settings:'wght' 600;fill:#b2b2b2;stroke-width:1.95422;stroke-dasharray:none"
           id="path9" />
      </g>
    </g>
    <text
       xml:space="preserve"
       style="font-weight:300;font-size:5.64444px;font-family:Roboto;-inkscape-font-specification:'Roboto Light';letter-spacing:0px;fill:#ffffff;stroke-width:0.786063;stroke-dasharray:none"
       x="17.090483"
       y="92.880249"
       id="text1"
       inkscape:export-filename="text1.png"
       inkscape:export-xdpi="96"
       inkscape:export-ydpi="96"><tspan
         sodipodi:role="line"
         id="tspan1"
         style="font-size:5.64444px;letter-spacing:0px;stroke-width:0.786063;stroke-dasharray:none"
         x="17.090483"
         y="92.880249">To install drag the darktable icon to the Applications folder </tspan></text>
  </g>
</svg>
